<?xml version="1.0" encoding="UTF-8"?>
<svg xmlns="http://www.w3.org/2000/svg" width="540" height="573" viewBox="0 0 540 573" fill="none">
  <path d="M358.022 449.903L534.664 551.823C536.604 552.943 536.604 554.759 534.664 555.879L508.711 570.825C506.771 571.946 503.625 571.946 501.686 570.825L325.042 468.905C323.103 467.785 323.103 465.968 325.042 464.848L350.997 449.903C352.938 448.783 356.083 448.783 358.022 449.903Z" fill="black" fill-opacity="0.1"></path>
  <path d="M136.852 539.339C93.6293 539.339 58.5904 519.109 58.5904 494.154C58.5904 469.199 93.6293 448.969 136.852 448.969C180.074 448.969 215.113 469.199 215.113 494.154C215.113 519.109 180.074 539.339 136.852 539.339Z" fill="#B7BDC4"></path>
  <path d="M338.655 456.241L338.656 103.002C338.656 93.9136 343.172 91.4074 347.179 89.0941C351.187 86.7798 357.79 85.3769 363.486 88.6661L509.353 172.88C515.051 176.169 519.67 184.169 519.67 190.748V543.987C519.67 550.565 515.542 554.443 511.534 556.759C507.525 559.073 500.534 561.614 494.837 558.325L348.971 474.108C343.274 470.819 338.656 465.403 338.655 456.241Z" fill="#37474F"></path>
  <path d="M347.933 459.585L497.928 546.184L497.881 191.418L516.649 180.583C518.516 183.816 519.67 187.46 519.67 190.749V543.988C519.67 550.566 515.542 554.444 511.534 556.76C507.525 559.074 500.534 561.615 494.837 558.326L348.971 474.109C345.413 472.054 341.894 468.967 340.04 464.143L340.62 463.808L347.933 459.585Z" fill="#263238"></path>
  <path d="M349.243 99.9506L495.527 184.411C499.516 186.709 502.771 192.347 502.771 196.942V547.312C502.771 554.373 497.754 557.263 491.635 553.725L349.242 471.519C344.73 468.91 341.038 462.526 341.038 457.31V104.687C341.038 99.4716 344.732 97.3435 349.243 99.9506Z" fill="#455A64"></path>
  <path d="M348.174 121.432V448.948C348.174 453.915 351.676 459.991 355.964 462.456L487.841 538.597C492.141 541.099 495.631 539.085 495.631 534.106V204.185C495.631 200.158 493.344 195.405 490.164 192.44C489.913 192.213 489.676 191.987 489.425 191.773C488.913 191.368 488.377 190.999 487.841 190.689L450.746 169.271C450.746 169.271 449.662 168.64 448.329 167.877C446.995 167.103 445.91 167.721 445.91 169.271C445.91 170.808 444.755 171.403 443.325 170.569L400.097 145.613C398.679 144.792 397.512 142.873 397.512 141.337C397.512 139.896 396.559 138.145 395.344 137.288C395.26 137.228 395.177 137.18 395.094 137.133L358.811 116.192L358.037 115.74C352.605 112.606 348.174 115.166 348.174 121.432Z" fill="black"></path>
  <path d="M367.284 453.711C362.995 451.245 359.493 445.17 359.493 440.203V116.584L395.096 137.132C395.179 137.18 395.262 137.227 395.346 137.287C396.561 138.145 397.514 139.897 397.514 141.337C397.514 142.874 398.681 144.792 400.098 145.613L443.327 170.569C444.757 171.403 445.912 170.807 445.912 169.27C445.912 167.722 446.997 167.102 448.331 167.876C449.665 168.639 450.748 169.27 450.748 169.27L487.842 190.688C488.378 190.998 488.915 191.367 489.427 191.773C489.677 191.987 489.915 192.213 490.166 192.439C493.346 195.406 495.633 200.159 495.633 204.184V527.815L367.284 453.711Z" fill="#263238"></path>
  <path d="M436.762 157.386L416.945 145.945C415.763 145.262 414.805 145.747 414.805 147.027C414.805 148.307 415.763 149.899 416.945 150.581L436.762 162.022C437.944 162.705 438.902 162.22 438.902 160.939C438.902 159.66 437.944 158.069 436.762 157.386Z" fill="#263238"></path>
  <path d="M406.777 139.135C405.445 138.366 404.366 138.989 404.365 140.528C404.365 142.066 405.445 143.935 406.777 144.705C408.109 145.473 409.187 144.85 409.187 143.313C409.189 141.773 408.109 139.903 406.777 139.135Z" fill="#263238"></path>
  <path d="M506.138 233.126C506.138 230.534 507.845 227.447 509.95 226.231C510.967 225.645 511.884 225.607 512.563 226.015C513.042 226.303 514.924 227.351 515.423 227.651C516.148 228.086 516.6 229.026 516.6 230.358V259.14C516.6 261.732 514.893 264.819 512.787 266.035C511.817 266.595 510.936 266.655 510.268 266.303C509.742 266.027 507.818 264.915 507.32 264.617C506.593 264.184 506.139 263.242 506.139 261.907L506.138 233.126Z" fill="#455A64"></path>
  <path d="M508.973 234.762V263.544C508.973 266.136 510.679 267.252 512.785 266.036C514.891 264.821 516.598 261.734 516.598 259.142V230.36C516.598 227.769 514.891 226.653 512.785 227.869C510.679 229.084 508.973 232.17 508.973 234.762Z" fill="#37474F"></path>
  <path d="M506.138 283.502C506.138 280.911 507.845 277.824 509.95 276.608C510.967 276.022 511.884 275.984 512.563 276.393C513.042 276.681 514.924 277.729 515.423 278.029C516.148 278.463 516.6 279.404 516.6 280.736V309.518C516.6 312.111 514.893 315.197 512.787 316.413C511.817 316.973 510.936 317.032 510.268 316.681C509.742 316.405 507.818 315.293 507.32 314.995C506.593 314.562 506.139 313.62 506.139 312.285L506.138 283.502Z" fill="#455A64"></path>
  <path d="M508.973 285.137V313.92C508.973 316.511 510.679 317.627 512.785 316.411C514.891 315.196 516.598 312.109 516.598 309.517V280.734C516.598 278.143 514.891 277.027 512.785 278.243C510.679 279.459 508.973 282.545 508.973 285.137Z" fill="#37474F"></path>
  <path d="M322.698 132.451C324.51 131.412 327.003 131.557 329.752 133.142L330.537 133.601L367.371 154.859C367.455 154.908 367.539 154.956 367.625 155.017C368.859 155.887 369.825 157.665 369.825 159.129C369.825 160.689 371.01 162.635 372.449 163.469L416.331 188.802C416.364 188.822 416.395 188.829 416.428 188.848C416.452 188.116 416.721 187.602 417.145 187.357C417.587 187.101 419.231 186.147 419.675 185.892C420.12 185.637 420.732 185.677 421.409 186.069C422.763 186.843 423.864 187.484 423.864 187.484L461.518 209.226C462.062 209.541 462.606 209.916 463.126 210.326C463.38 210.544 463.622 210.773 463.876 211.004C467.105 214.015 469.426 218.84 469.426 222.927V557.84C469.426 560.359 468.543 562.123 467.119 562.949C466.689 563.199 464.991 564.177 464.563 564.423C463.134 565.248 461.163 565.129 458.982 563.861L325.11 486.568C320.756 484.065 317.202 477.899 317.202 472.856V140.384C317.202 137.211 318.323 134.979 320.13 133.93C320.562 133.682 322.269 132.697 322.698 132.451Z" fill="#515F72"></path>
  <path opacity="0.3" d="M458.235 562.773V563.427L458.989 563.86C461.162 565.124 463.136 565.246 464.567 564.425C464.988 564.181 466.696 563.194 467.117 562.95C468.548 562.119 469.424 560.355 469.424 557.838V222.926C469.424 220.187 468.37 217.115 466.696 214.476L463.68 216.217C465.321 218.801 466.33 221.806 466.33 224.39V559.302C466.33 560.899 465.953 562.218 465.243 563.117C464.578 563.948 463.635 564.392 462.526 564.392C461.539 564.392 460.408 564.037 459.266 563.372L458.235 562.773Z" fill="black"></path>
  <path opacity="0.3" d="M365.807 158.03C366.373 158.817 366.728 159.771 366.728 160.592C366.728 161.545 367.105 162.61 367.704 163.53L370.742 161.778C370.188 160.946 369.822 159.982 369.822 159.128C369.822 158.207 369.434 157.154 368.835 156.278L365.807 158.03Z" fill="black"></path>
  <path d="M462.528 564.39C463.643 564.39 464.581 563.95 465.242 563.12C465.955 562.223 466.332 560.904 466.332 559.302V224.389C466.332 220.561 464.124 215.827 460.96 212.877L460.72 212.658C460.557 212.507 460.395 212.358 460.228 212.215C459.732 211.824 459.213 211.469 458.706 211.176L421.052 189.434C421.048 189.432 419.949 188.793 418.599 188.021C418.299 187.847 418.016 187.756 417.776 187.756C417.062 187.756 416.985 188.589 416.985 188.946C416.985 190.301 416.2 191.212 415.032 191.212C414.548 191.212 414.038 191.056 413.514 190.751L369.634 165.42C368.004 164.474 366.728 162.353 366.728 160.59C366.728 159.32 365.865 157.715 364.765 156.94C364.694 156.889 364.625 156.851 364.558 156.813L327.721 135.553L326.931 135.091C325.48 134.254 324.038 133.811 322.763 133.811C319.681 133.811 317.766 136.33 317.766 140.385V472.857C317.766 477.73 321.187 483.663 325.393 486.082L459.265 563.375C460.411 564.038 461.538 564.39 462.528 564.39Z" fill="#FAFAFA"></path>
  <path d="M322.765 134.373C319.99 134.373 318.333 136.621 318.333 140.385V472.856C318.333 477.471 321.696 483.304 325.678 485.593L459.552 562.889C460.608 563.503 461.637 563.827 462.528 563.827C464.557 563.827 465.768 562.136 465.768 559.302V224.389C465.768 220.705 463.633 216.141 460.589 213.302L460.333 213.068C460.177 212.924 460.021 212.782 459.896 212.673C459.405 212.285 458.909 211.946 458.423 211.664L420.765 189.92C420.762 189.919 419.667 189.281 418.312 188.506C418.022 188.338 417.84 188.32 417.776 188.32C417.554 188.32 417.548 188.883 417.548 188.948C417.548 190.612 416.514 191.775 415.033 191.775C414.447 191.775 413.842 191.595 413.235 191.241L369.351 165.907C367.565 164.871 366.166 162.537 366.166 160.592C366.166 159.503 365.393 158.071 364.438 157.397C364.385 157.359 364.332 157.33 364.275 157.297L327.437 136.035L326.656 135.58C325.288 134.791 323.942 134.373 322.765 134.373ZM322.766 133.248C324.108 133.248 325.622 133.683 327.219 134.605L328.005 135.064L364.837 156.322C364.922 156.37 365.006 156.419 365.091 156.48C366.324 157.35 367.291 159.128 367.291 160.591C367.291 162.151 368.477 164.097 369.915 164.932L413.797 190.265C414.244 190.526 414.664 190.649 415.033 190.649C415.86 190.649 416.422 190.027 416.422 188.946C416.422 187.833 416.973 187.193 417.776 187.193C418.108 187.193 418.481 187.302 418.876 187.531C420.23 188.305 421.331 188.946 421.331 188.946L458.987 210.688C459.531 211.003 460.075 211.377 460.595 211.788C460.849 212.006 461.09 212.235 461.344 212.465C464.574 215.476 466.895 220.301 466.895 224.388V559.301C466.895 562.882 465.117 564.951 462.529 564.951C461.463 564.951 460.26 564.601 458.987 563.86L325.115 486.567C320.761 484.064 317.207 477.897 317.207 472.855V140.385C317.207 135.868 319.475 133.248 322.766 133.248Z" fill="#3F4A59"></path>
  <path d="M95.0286 385.621C89.8021 383.713 83.7794 388.759 73.718 390.845C54.9713 394.729 45.5741 400.216 35.5005 407.271C25.4268 414.326 22.8852 412.049 19.0726 417.074C15.2612 422.1 21.1951 426.198 22.2719 434.99C24.0873 449.811 28.3157 460.538 33.6929 467.898C43.1866 480.891 39.5792 487.323 45.0696 488.66C50.9193 490.085 51.7798 484.973 61.8545 483.761C85.6902 480.891 96.5101 475.668 110.325 463.409C115.721 458.621 120.581 460.384 122.958 455.036C124.148 452.36 120.464 449.815 119.043 440.1C116.678 423.956 110.447 407.785 102.775 398.249C99.4277 394.086 100.347 387.563 95.0286 385.621Z" fill="#F27D49"></path>
  <path opacity="0.15" d="M22.5685 427.973C25.4872 435.639 23.2217 441.96 29.5859 456.306C35.6984 470.084 41.4228 474.978 42.8178 480.82C43.9756 485.668 46.5394 488.455 48.5544 483.644C50.5693 478.835 50.2999 463.529 44.3182 448.961C37.4284 432.183 32.111 425.077 28.1077 421.847C21.8333 416.787 20.2741 421.947 22.5685 427.973Z" fill="black"></path>
  <path opacity="0.2" d="M87.8377 477.927C80.868 480.654 72.714 482.453 61.8552 483.76C56.4846 484.407 53.7322 486.161 51.4467 487.443C55.501 484.113 57.1167 478.877 63.6284 478.343C68.3558 477.957 79.1469 480 87.8377 477.927ZM122.279 456.261C119.728 460.111 115.254 459.036 110.327 463.409C105.544 467.654 101.118 471.054 96.3888 473.805C102.352 469.085 103.54 462.917 108.123 460.45C113.637 457.482 117.936 459.576 122.279 456.261Z" fill="black"></path>
  <path opacity="0.05" d="M84.2597 396.622C70.8848 395.74 56.4308 399.052 45.1384 406.625C42.9871 408.189 41.3203 410.636 40.9067 413.432C40.3844 416.957 41.2305 420.178 43.9929 422.833C46.5568 425.297 50.9482 426.425 54.1863 426.825C61.0118 427.67 65.3478 426.939 73.9255 428.993C76.4572 429.6 79.926 431.29 82.3468 433.579C85.9653 437.002 88.4338 440.457 91.6187 443.379C96.0068 447.405 105.352 448.473 109.29 446.137C113.496 443.642 115.536 438.803 114.155 431.724C111.085 416.003 102.167 399.165 84.2597 396.622Z" fill="white"></path>
  <path d="M160.23 373.95C164.392 372.311 169.334 376.246 177.46 377.721C192.603 380.468 204.089 385.547 212.325 391.015C220.563 396.482 222.559 394.601 225.722 398.563C228.886 402.526 224.2 405.937 223.51 413.025C222.348 424.972 219.165 433.676 214.991 439.698C207.622 450.329 210.65 455.426 206.265 456.611C201.593 457.874 200.799 453.783 192.679 453.01C173.468 451.182 160.843 446.342 149.496 436.768C145.063 433.028 141.193 434.542 139.176 430.291C138.167 428.165 141.076 426.046 142.024 418.212C143.601 405.192 148.284 392.07 154.259 384.255C156.866 380.841 155.995 375.617 160.23 373.95Z" fill="#F27D49"></path>
  <path opacity="0.15" d="M223.135 407.391C220.943 413.61 222.89 418.644 218.063 430.3C213.427 441.495 208.925 445.542 207.92 450.264C207.087 454.184 205.083 456.473 203.367 452.649C201.652 448.824 201.562 436.519 206.076 424.693C211.277 411.072 215.408 405.255 218.56 402.581C223.502 398.387 224.858 402.502 223.135 407.391Z" fill="black"></path>
  <path opacity="0.2" d="M191.145 448.691C196.388 448.989 197.791 453.164 201.115 455.759C199.253 454.775 197.007 453.421 192.677 453.008C183.926 452.175 177.337 450.892 171.682 448.841C178.708 450.333 187.338 448.475 191.145 448.691ZM151.206 434.345C154.938 436.235 156.017 441.168 160.903 444.842C157.047 442.725 153.423 440.081 149.494 436.767C145.447 433.352 141.873 434.305 139.746 431.262C143.303 433.839 146.715 432.07 151.206 434.345Z" fill="black"></path>
  <path opacity="0.15" d="M169.104 382.574C179.834 381.597 193.683 383.774 202.91 389.635C204.67 390.849 207.715 393.835 208.105 396.074C208.595 398.896 207.981 401.502 205.814 403.691C203.802 405.722 200.297 406.717 197.703 407.103C192.235 407.918 187.006 406.542 179.812 407.899C177.756 408.287 173.283 410.348 171.384 412.235C168.544 415.058 166.63 417.884 164.129 420.297C160.683 423.619 153.195 424.665 149.984 422.868C146.554 420.947 144.818 417.099 145.787 411.383C147.936 398.686 154.765 384.976 169.104 382.574Z" fill="white"></path>
  <path d="M158.662 508.399L169.412 488.986L191.934 502.472L167.595 530.928C167.595 530.928 154.118 530.161 151.813 523.766C149.508 517.371 155.336 510.716 158.662 508.399Z" fill="#F28F8F"></path>
  <path d="M146.249 517.865C145.048 518.772 144.336 519.825 143.572 521.078C142.809 522.331 143.337 528.217 142.682 530.99C142.026 533.762 141.455 534.519 140.308 538.01C139.034 541.879 136.515 545.475 139.997 555.104C143.525 564.861 148.548 569.163 152.752 571.36C154.962 572.514 157.745 572.328 157.745 572.328C157.745 572.328 163.014 570.05 162.045 566.916C161.076 563.782 146.249 517.865 146.249 517.865Z" fill="#263238"></path>
  <path d="M170.286 527.496C170.184 528.508 168.849 530.12 168.316 530.969C166.52 533.822 165.809 537.6 165.294 540.897C162.848 556.504 169.36 564.077 161.308 570.263C158.967 571.893 153.948 571.708 145.894 562.317C141.78 557.52 139.088 547.388 140.387 542.681C141.685 537.976 143.618 534.862 144.43 531.25C145.241 527.64 144.425 521.019 146.25 517.865C147.321 516.015 149.14 514.664 150.884 513.488C152.318 512.523 153.926 510.215 155.392 509.289C156.977 508.289 157.64 507.353 158.659 508.4L157.022 510.627C154.484 514.509 156.83 515.999 156.988 517.996C157.152 520.078 156.56 522.316 156.276 524.409C158.092 521.885 158.782 519.722 160.906 519.998C162.894 520.256 163.277 520.159 166.426 522.85C169.576 525.543 170.377 526.595 170.286 527.496Z" fill="#3B4654"></path>
  <path opacity="0.3" d="M145.893 562.317C141.778 557.52 139.087 547.388 140.384 542.681C140.855 540.98 141.407 539.492 141.959 538.108C141.909 538.424 141.83 538.748 141.801 539.018C141.734 539.622 141.683 540.227 141.654 540.834C141.54 543.167 141.665 545.696 142.75 547.816C143.715 549.702 145.957 554.44 148.565 554.426C150.041 554.418 151.219 552.92 151.709 551.246C151.916 550.539 152.225 548.645 152.225 548.645C152.225 548.645 156.103 549.295 159.114 551.091C163.004 553.411 162.892 553.971 162.892 553.971C162.773 554.831 162.67 556.287 162.923 557.289C163.177 558.294 163.826 559.905 164.481 560.523C164.797 560.821 165.135 561.052 165.476 561.248C165.488 564.82 164.684 567.668 161.308 570.263C158.965 571.893 153.946 571.708 145.893 562.317Z" fill="black"></path>
  <path d="M165.295 540.897C164.537 545.739 164.641 549.805 164.905 553.3C163.668 557.324 162.419 557.264 162.152 555.223C161.885 553.169 164.224 544.537 165.932 537.41C165.674 538.591 165.471 539.772 165.295 540.897Z" fill="#323E4D"></path>
  <path d="M154.733 516.544C154.415 514.626 153.363 511.639 154.42 509.839C154.783 509.646 155.124 509.459 155.393 509.289C156.978 508.289 157.642 507.353 158.66 508.4L157.023 510.627C154.485 514.509 156.832 516 156.989 517.996C157.153 520.078 156.561 522.316 156.276 524.408C155.013 531.194 153.679 533.503 153.231 539.879C152.783 546.254 154.251 550.457 153.372 550.858C152.493 551.258 150.65 550.622 150.086 545.556C149.521 540.489 151.367 531.846 152.761 527.726C154.155 523.605 155.181 519.241 154.733 516.544Z" fill="#323E4D"></path>
  <path d="M151.793 549.109C151.883 549.192 151.996 549.25 152.124 549.271C156.618 549.981 159.042 550.989 162.536 554.737C162.784 554.983 163.174 555.008 163.431 554.769C163.686 554.531 163.702 554.129 163.463 553.874C159.771 549.914 157.102 548.774 152.322 548.02C151.977 547.967 151.653 548.201 151.599 548.547C151.564 548.764 151.644 548.972 151.793 549.109Z" fill="#EBEBEB"></path>
  <path d="M152.349 543.784C152.437 543.866 152.549 543.924 152.674 543.948C157.327 544.8 159.944 545.985 163.652 549.932C163.93 550.217 164.309 550.206 164.571 549.961C164.832 549.714 164.845 549.303 164.6 549.042C160.687 544.887 157.842 543.573 152.907 542.669C152.555 542.605 152.216 542.838 152.151 543.191C152.112 543.418 152.193 543.639 152.349 543.784Z" fill="#EBEBEB"></path>
  <path d="M151.971 537.965C152.067 538.054 152.189 538.119 152.329 538.145C157.462 539.086 160.514 540.522 164.599 544.873C164.857 545.156 165.323 545.174 165.613 544.904C165.9 544.633 165.914 544.18 165.644 543.89C161.341 539.318 158.027 537.732 152.586 536.735C152.197 536.664 151.824 536.923 151.752 537.311C151.708 537.562 151.797 537.804 151.971 537.965Z" fill="#EBEBEB"></path>
  <path d="M152.581 532.953C152.676 533.041 152.795 533.104 152.933 533.129C157.964 534.048 160.917 535.426 164.933 539.699C165.188 539.971 165.641 539.995 165.925 539.729C166.208 539.464 166.221 539.019 165.955 538.737C161.742 534.252 158.516 532.722 153.185 531.747C152.804 531.677 152.438 531.93 152.367 532.311C152.323 532.556 152.412 532.795 152.581 532.953Z" fill="#EBEBEB"></path>
  <path d="M154.18 528.024C154.274 528.112 154.394 528.175 154.531 528.199C159.563 529.122 162.513 530.496 166.532 534.772C166.794 535.049 167.241 535.068 167.525 534.802C167.808 534.537 167.821 534.093 167.555 533.809C163.335 529.322 160.118 527.795 154.784 526.816C154.403 526.748 154.037 527.001 153.966 527.382C153.922 527.627 154.009 527.865 154.18 528.024Z" fill="#EBEBEB"></path>
  <path d="M139.571 439.761C139.571 439.761 175.303 432.681 203.755 437.621C224.41 441.206 222.521 457.965 218.82 468.298C211.51 488.712 177.909 520.86 177.909 520.86C177.909 520.86 162.347 514.129 159.057 503.872L167.583 485.861L141.922 493.169L139.101 489.507L139.571 439.761Z" fill="url(#paint0_linear_2376_5974)"></path>
  <path d="M184.018 514.754C180.338 518.533 177.908 520.86 177.908 520.86C177.908 520.86 162.347 514.129 159.056 503.872L162.531 496.531L184.018 514.754Z" fill="#3B4654"></path>
  <path d="M172.24 470.442C166.765 478.084 163.304 483.771 161.12 487.702L167.584 485.861C175.328 468.893 176.963 463.93 188.74 456.23C188.74 456.23 180.372 459.092 172.24 470.442Z" fill="#3B4654"></path>
  <path d="M168.688 511.355L181.88 522.139L189.34 526.82L181.606 543.297L156.829 531.435L168.688 511.355Z" fill="#F28F8F"></path>
  <path d="M219.583 535.209C225.23 537.435 228.717 539.677 231.325 543.085C233.934 546.494 234.73 549.947 232.253 554.077C229.775 558.206 225.221 563.055 219.815 562.738C214.407 562.422 211.081 561.074 206.063 558.355L219.583 535.209Z" fill="#263238"></path>
  <path d="M174.457 539.986C174.379 541.677 181.51 545.051 188.92 548.586C196.863 552.375 198.818 554.843 205.3 558.032C212.708 561.677 215.524 561.888 221.273 560.291C227.022 558.694 234.115 550.465 229.175 542.897C225.147 536.727 219.93 535.034 212.012 532.95C203.828 530.796 199.472 529.289 193.49 526.965C187.774 524.744 183.061 520.754 181.88 522.139C182.696 522.535 187.252 526.721 187.547 527.231C187.841 527.741 188.406 528.791 186.934 528.184C186.293 527.919 185.245 527.634 184.58 527.962C183.909 528.292 181.561 531.852 180.803 533.638C180.36 534.681 178.867 538.144 179.693 539.639C180.01 540.214 182.172 541.772 181.446 542.2C181.058 542.428 179.668 542.091 179.239 541.912C178.724 541.697 178.088 541.556 177.565 541.362C177.068 541.176 175.767 540.596 174.457 539.986Z" fill="#3B4654"></path>
  <path opacity="0.3" d="M202.757 556.807C203.821 557.343 210.546 560.469 212.658 558.594C214.944 556.565 209.549 553.328 209.549 553.328C209.549 553.328 208.726 548.256 214.848 540.792C215.91 541.615 220.331 541.574 220.271 538.97C220.21 536.384 212.801 533.178 212.694 533.132C220.273 535.16 225.265 536.907 229.175 542.896C234.115 550.464 227.022 558.694 221.273 560.29C215.523 561.887 212.708 561.677 205.3 558.031C204.559 557.668 203.408 557.189 202.757 556.807Z" fill="black"></path>
  <path d="M210.272 552.821C213.077 553.758 211.154 556.307 207.045 555.48C200.887 554.24 195.774 550.748 188.92 548.586C181.511 545.051 173.964 541.759 174.45 539.886C175.776 540.383 178.612 541.565 178.612 541.565C179.167 541.801 180.599 542.335 180.599 542.335C186.215 544.76 192.427 548.66 198.502 550.306C203.853 551.756 207.466 551.885 210.272 552.821Z" fill="#323E4D"></path>
  <path d="M214.442 541.756C211.876 540.271 211.429 539.002 206.394 536.69C201.397 534.394 192.85 529.43 187.591 526.366C185.945 525.464 181.938 522.168 181.882 522.139C182.753 521.147 185.961 522.064 189.169 524.086C192.377 526.109 194.332 527.398 197.514 529.054C203.693 532.766 210.738 535.272 214.268 537.545C217.796 539.816 217.009 543.241 214.442 541.756Z" fill="#323E4D"></path>
  <path d="M214.818 541.074C214.783 541.156 214.733 541.232 214.672 541.301C214.619 541.356 210.603 545.774 209.868 553.727C209.83 554.118 209.515 554.427 209.166 554.421C208.815 554.416 208.561 554.095 208.596 553.705C209.383 545.198 213.592 540.581 213.824 540.333C214.086 540.05 214.491 540.036 214.725 540.304C214.902 540.506 214.93 540.815 214.818 541.074Z" fill="#F0F0F0"></path>
  <path d="M209.843 537.437C209.811 537.512 209.767 537.582 209.712 537.646C209.656 537.71 204.84 543.525 203.763 552.314C203.71 552.701 203.393 553.002 203.042 552.986C202.692 552.967 202.446 552.635 202.495 552.246C203.638 542.952 208.586 536.994 208.827 536.713C209.084 536.42 209.488 536.392 209.732 536.648C209.925 536.85 209.96 537.169 209.843 537.437Z" fill="#F0F0F0"></path>
  <path d="M198.872 551.791C198.764 552.041 198.536 552.224 198.278 552.239C197.924 552.258 197.648 551.96 197.66 551.572C197.956 542.576 203.749 534.135 204.023 533.842C204.287 533.558 204.691 533.545 204.925 533.814C205.158 534.082 205.126 534.532 204.87 534.811C204.809 534.878 199.207 543.124 198.941 551.496C198.938 551.599 198.913 551.699 198.872 551.791Z" fill="#F0F0F0"></path>
  <path d="M194.27 548.849C194.164 549.094 193.941 549.275 193.687 549.295C193.331 549.322 193.05 549.029 193.058 548.641C193.229 538.697 199.484 532.085 199.764 531.82C200.043 531.554 200.445 531.569 200.662 531.854C200.879 532.139 200.828 532.595 200.551 532.851C200.488 532.91 194.5 539.286 194.338 548.54C194.335 548.65 194.311 548.754 194.27 548.849Z" fill="#F0F0F0"></path>
  <path d="M188.303 546.328C188.199 546.568 187.979 546.749 187.729 546.772C187.375 546.805 187.09 546.518 187.091 546.129C187.13 536.772 193.708 529.53 194.004 529.239C194.276 528.965 194.68 528.971 194.904 529.25C195.129 529.527 195.093 529.974 194.813 530.247C194.745 530.315 188.404 537.32 188.37 546.008C188.37 546.121 188.346 546.229 188.303 546.328Z" fill="#EBEBEB"></path>
  <path d="M141.809 439.338L67.7906 452.907C67.7906 452.907 60.4361 480.656 66.7449 497.058C73.0536 513.459 89.5758 518.685 97.4881 519.298C108.803 520.173 121.94 516.674 121.94 516.674C121.94 516.674 128.459 521.776 135.072 524.404C141.686 527.032 170.632 539.158 170.632 539.158C170.632 539.158 182.371 535.362 181.564 521.02L147.333 485.365L141.809 439.338Z" fill="url(#paint1_linear_2376_5974)"></path>
  <path d="M115.813 507.035C115.813 507.035 120.188 513.379 134.358 519.385C141.881 522.574 165.954 534.009 174.906 536.755C172.622 538.512 170.632 539.158 170.632 539.158C170.632 539.158 141.686 527.033 135.073 524.405C128.459 521.776 121.941 516.674 121.941 516.674C115.716 511.255 115.813 507.035 115.813 507.035Z" fill="#3B4654"></path>
  <path d="M106.794 513.96C99.714 515.099 80.6457 511.589 74.4501 498.153C68.3842 484.999 70.4291 469.3 71.7798 455.792L69.4931 456.326L66.8572 456.943C65.1039 465.231 61.9046 484.477 66.7441 497.059C73.0528 513.46 89.5761 518.686 97.4873 519.298C108.802 520.173 121.939 516.675 121.939 516.675L118.177 510.859C118.179 510.858 113.921 512.813 106.794 513.96Z" fill="#3B4654"></path>
  <path d="M152.067 490.276C152.067 490.276 149.291 487.275 146.49 483.991C143.69 480.708 139.171 474.484 127.55 474.931C115.931 475.378 93.592 477.39 93.592 477.39C93.592 477.39 116.892 473.423 124.937 472.082C132.982 470.742 138.343 471.674 142.931 475.742C147.519 479.811 155.689 489.249 155.689 489.249L152.067 490.276Z" fill="#3B4654"></path>
  <path d="M135.052 473.968C135.052 473.968 140.879 467.937 140.487 457.839C140.487 457.839 143.272 468.444 138.822 476.146L135.052 473.968Z" fill="#3B4654"></path>
  <path d="M129.117 359.95C137.952 361.579 145.301 363.85 150.638 373.127C155.698 381.922 176.85 418.824 176.85 418.824L152.288 431.711L134.318 400.86L129.117 359.95Z" fill="url(#paint2_linear_2376_5974)"></path>
  <path d="M141.586 392.502C138.545 367.245 129.373 360.771 124.784 359.348L106.465 357.417C101.029 358.53 78.2865 367.699 71.9866 369.887C67.9312 371.295 66.1857 379.908 65.3152 393.401C64.6077 404.36 64.499 413.546 64.8616 428.698C65.1655 441.396 65.4771 455.863 69.355 473.514C98.609 479.577 130.951 466.212 145.732 437.626C144.911 434.114 144.538 429.718 143.913 420.963C143.288 412.207 142.41 399.339 141.586 392.502Z" fill="#263238"></path>
  <path d="M69.7185 370.479L89.2936 361.58C89.2936 361.58 91.7643 367.329 97.0639 378.359C102.364 389.39 102.554 394.398 103.049 413.648C103.543 432.898 103.022 474.488 105.314 482.298C96.8333 483.478 68.6938 481.461 63.5982 478.326C63.5982 478.326 63.128 446.826 62.4139 427.149C61.6986 407.472 60.0851 376.04 69.7185 370.479Z" fill="url(#paint3_linear_2376_5974)"></path>
  <path d="M114.753 359.952C122.544 362.985 128.251 371.638 130.092 383.606C131.933 395.574 133.757 419.961 135.048 428.994C136.339 438.026 141.32 451.364 141.32 451.364C144.849 449.123 148.6 441.352 148.758 435.868C146.845 430.366 146.49 427.682 145.73 420.153C144.97 412.625 142.941 395.251 141.808 386.068C140.675 376.885 137.396 365.481 129.114 359.948C120.928 358.121 114.84 357.875 114.84 357.875L114.753 359.952Z" fill="url(#paint4_linear_2376_5974)"></path>
  <path d="M130.934 390.514C129.868 381.707 124.86 365.953 115.321 362.743C114.756 361.55 114.756 359.953 114.756 359.953L114.843 355.382C114.843 355.382 118.862 356.688 122.975 359.349C127.088 362.01 134.194 370.509 136.029 377.368C131.901 373.859 130.263 379.56 130.934 390.514Z" fill="#4C5A6C"></path>
  <path d="M90.3133 351.125C88.6909 345.09 81.9829 339.267 78.727 334.179C75.5876 329.274 73.6315 325.423 73.4729 320.547C73.3786 317.659 74.8202 313.596 76.8718 312.578C73.3986 302.139 80.9383 296.43 85.0946 295.015C86.6893 294.472 89.3252 293.617 90.8223 292.817C93.0424 291.631 93.3895 289.722 95.1028 287.962C98.0537 284.932 103.453 284.359 105.903 288.289C107.777 285.325 110.681 285.121 114.11 285.655C117.378 286.164 119.149 288.727 119.103 291.7C123.34 288.771 127.746 291.542 128.407 294.136C128.893 296.048 128.635 297.725 130.07 299.344C131.686 301.168 134.388 300.878 135.059 299.217C135.783 301.931 134.905 304.134 131.9 304.265C133.072 305.661 133.525 307.593 133.177 309.454C132.704 311.976 130.371 313.654 128.383 313.885C128.209 315.429 128.276 316.822 127.45 318.216C126.654 319.558 125.585 320.913 124.23 321.725C119.908 324.312 114.966 325.487 110.184 326.958C108.293 327.54 106.402 328.122 104.51 328.704C104.18 328.806 102.442 329.077 102.262 329.396C102.262 329.398 90.3133 351.125 90.3133 351.125Z" fill="#263238"></path>
  <path d="M82.1284 343.894C86.6839 346.061 89.3421 342.997 89.3421 342.997L90.0307 355.406L90.0817 365.509C90.0817 365.509 102.334 378.593 118.934 377.808C119.775 374.081 118.564 367.529 115.89 364.32L115.479 354.745C115.479 354.745 119.9 354.407 122.743 353.729C127.49 352.615 131.194 348.425 132.073 343.088C132.992 337.51 132.544 328.576 130.744 322.164C130.284 320.527 129.991 318.839 130.006 317.138C130.046 312.621 128.995 310.094 127.483 306.446C121.786 302.684 108.922 302.567 98.1659 310.585C100.127 317.251 97.9963 322.883 93.301 325.938C93.7058 327.75 94.3722 332.361 91.3504 332.561C89.1735 332.704 88.7698 329.994 86.3146 327.806C83.8084 325.571 78.5931 325.465 76.9141 329.193C74.5654 334.411 77.1381 341.52 82.1284 343.894Z" fill="#F28F8F"></path>
  <path d="M115.477 354.746C107.765 354.568 101.889 354.286 97.3926 349.135C94.5726 345.905 91.9399 340.527 91.9399 340.527C91.9399 340.527 93.3594 347.21 96.2826 351.55C98.536 354.896 103.53 357.39 115.586 357.288L115.477 354.746Z" fill="#B16668"></path>
  <path d="M110.409 324.808C110.565 326.035 109.734 327.15 108.552 327.297C107.37 327.445 106.286 326.569 106.129 325.341C105.973 324.113 106.804 322.999 107.986 322.851C109.168 322.705 110.252 323.58 110.409 324.808Z" fill="#263238"></path>
  <path d="M108.018 318.327L103.893 321.604C103.002 320.41 103.204 318.708 104.343 317.804C105.48 316.898 107.126 317.132 108.018 318.327Z" fill="#263238"></path>
  <path d="M127.967 316.876L122.702 316.202C122.835 314.729 124.122 313.687 125.575 313.873C127.028 314.059 128.1 315.403 127.967 316.876Z" fill="#263238"></path>
  <path d="M127.909 322.08C128.065 323.307 127.235 324.421 126.052 324.569C124.871 324.716 123.787 323.841 123.631 322.614C123.474 321.387 124.305 320.273 125.487 320.125C126.668 319.977 127.752 320.852 127.909 322.08Z" fill="#263238"></path>
  <path d="M126.018 330.534L119.057 334.882L114.704 320.642C117.323 319.266 121.824 325.456 126.018 330.534Z" fill="#B16668"></path>
  <path d="M110.716 339.532L119.914 340.178C119.801 342.793 117.65 344.769 115.108 344.591C112.568 344.413 110.602 342.148 110.716 339.532Z" fill="#B16668"></path>
  <path d="M112.001 340.835C111.616 340.847 111.251 340.915 110.897 341.007C111.414 342.946 113.065 344.448 115.108 344.592C115.62 344.628 116.109 344.555 116.576 344.429C116.422 342.353 114.414 340.754 112.001 340.835Z" fill="#FFA8A7"></path>
  <path d="M102.289 396.395C100.159 379.108 92.9174 378.213 91.2418 383.894C84.9552 374.48 84.6879 366.392 84.7866 363.167C86.5011 360.197 87.844 357.698 88.414 356.58C89.1692 355.101 90.0341 355.407 90.0341 355.407L90.0851 359.795C90.0851 359.795 91.091 364.828 96.2564 371.179C100.049 375.843 101.387 381.813 102.289 396.395Z" fill="#4C5A6C"></path>
  <path d="M188.481 401.197L188.516 401.203L186.786 399.587L186.785 399.61C186.394 399.269 185.771 399.143 184.951 399.331L163.7 404.272C161.883 404.69 159.858 406.436 159.178 408.172L143.607 447.896C143.247 448.816 143.347 449.54 143.783 449.964L143.767 449.968L145.55 451.634V451.611C145.94 451.963 146.569 452.094 147.401 451.905L168.652 446.963C170.469 446.546 172.494 444.8 173.174 443.063C176.233 435.255 185.687 411.145 188.745 403.338C189.13 402.359 188.99 401.605 188.481 401.197Z" fill="#455A64"></path>
  <path d="M163.279 406.925C162.237 407.682 161.324 408.747 160.911 409.796L145.335 449.507C144.998 450.399 145.058 451.111 145.45 451.535L143.772 449.977L143.791 449.961C143.346 449.535 143.25 448.821 143.607 447.895L159.182 408.166C159.558 407.187 160.395 406.207 161.367 405.448L163.279 406.925Z" fill="#455A64"></path>
  <path d="M145.343 449.514L160.914 409.79C161.594 408.054 163.618 406.308 165.436 405.891L186.687 400.95C188.504 400.532 189.427 401.602 188.747 403.337C185.69 411.144 176.234 435.254 173.176 443.062C172.496 444.799 170.471 446.545 168.653 446.962L147.402 451.904C145.585 452.319 144.663 451.25 145.343 449.514Z" fill="#263238"></path>
  <path d="M160.601 418.24L163.515 410.806C163.642 410.481 164.022 410.153 164.361 410.076L168.032 409.233C168.372 409.155 168.544 409.355 168.417 409.68C167.845 411.142 166.075 415.654 165.503 417.115C165.376 417.44 164.998 417.767 164.657 417.845L160.986 418.688C160.646 418.766 160.473 418.565 160.601 418.24Z" fill="#455A64"></path>
  <path d="M163.622 412.616C163.933 411.825 164.898 411.02 165.776 410.818C166.654 410.616 167.117 411.094 166.805 411.885C166.493 412.676 165.53 413.481 164.652 413.683C163.772 413.884 163.312 413.406 163.622 412.616Z" fill="#263238"></path>
  <path d="M162.199 416.368C162.51 415.578 163.474 414.772 164.353 414.571C165.231 414.369 165.693 414.847 165.381 415.637C165.069 416.428 164.105 417.233 163.227 417.435C162.349 417.637 161.889 417.159 162.199 416.368Z" fill="#263238"></path>
  <path d="M183.694 426.51C185.76 424.203 185.631 423.851 184.8 422.468C183.97 421.082 182.029 418.741 178.746 418.48C176.538 418.305 174.32 418.018 173.12 418.48C171.92 418.941 172.625 421.435 175.423 422.392C179.831 423.9 179.668 425.125 179.668 425.125C179.668 425.125 175.607 423.739 173.946 423.463C172.285 423.186 169.147 423.649 167.208 423.741C165.27 423.833 164.623 426.25 167.762 427.45C167.762 427.45 165.314 427.572 164.208 427.626C161.721 427.749 160.746 428.959 162.502 430.684C162.919 431.093 163.507 431.579 164.624 431.757C164.624 431.757 162.021 431.47 161.872 432.329C161.446 434.796 162.984 435.622 168.08 437.725C172.937 439.732 173.674 442.546 172.475 444.299C172.475 444.299 174.625 443.343 176.56 442.298C177.978 441.531 179.207 440.63 178.838 438.507C178.838 438.507 181.699 438.877 182.068 437.123C182.437 435.37 181.791 433.246 181.791 433.246C181.791 433.246 183.565 432.6 183.693 430.477C183.821 428.355 182.991 427.247 182.991 427.247L183.694 426.51Z" fill="#F28F8F"></path>
  <path d="M167.762 427.45C168.832 427.407 169.847 427.284 170.971 427.454C172.116 427.683 173.022 428.264 173.936 428.765C175.744 429.831 177.52 430.96 179.145 432.331C177.145 431.595 175.294 430.616 173.479 429.575C172.574 429.052 171.692 428.465 170.801 428.158C169.868 427.898 168.77 427.76 167.762 427.45Z" fill="#B16668"></path>
  <path d="M164.625 431.757C165.749 431.552 166.966 431.659 168.068 432.029C169.182 432.372 170.216 432.884 171.223 433.417C173.215 434.523 175.118 435.763 176.848 437.267C174.732 436.391 172.755 435.302 170.778 434.235C168.796 433.171 166.906 432.052 164.625 431.757Z" fill="#B16668"></path>
  <path d="M130.829 453.79C137.735 452.254 141 452.319 148.882 448.519C152.166 446.935 154.628 445.75 156.685 444.152C158.741 442.554 160.599 440.572 161.768 438.178C161.988 437.728 162.141 437.279 162.471 436.903C162.787 436.543 163.143 436.227 163.501 435.918C164.18 435.332 164.898 434.767 165.409 434.001C165.95 433.188 166.213 432.232 166.597 431.341C166.776 430.926 166.888 430.502 167.115 430.104C167.346 429.7 167.627 429.33 167.918 428.974C168.672 428.054 169.551 427.148 169.977 426.01C170.374 424.948 169.791 424.219 169.791 424.219C169.791 424.219 170.935 423.185 171.307 422.811C171.83 422.288 172.301 421.708 172.711 421.084C172.873 420.837 173.033 420.545 172.964 420.267C172.924 420.106 172.811 419.98 172.695 419.869C170.834 418.103 168.32 419.064 166.208 420.079C160.711 422.719 154.564 426.662 151.973 428.001C149.381 429.341 146.793 430.038 147.021 428.492C147.25 426.947 150.48 422.981 150.913 418.231C151.127 415.876 149.09 413.211 147.186 415.91C143.518 421.111 143.431 420.046 138.844 424.825C135.818 427.979 133.973 432.28 129.121 433.524C124.269 434.768 93.5981 437.398 93.5981 437.398L83.8594 400.105C83.8594 400.105 79.2495 377.081 69.7248 370.481C59.8829 374.962 54.5655 382.203 53.9512 387.192C52.8755 395.933 54.9404 403.659 60.1968 423.961C64.6558 441.187 68.9707 451.927 72.2343 458.036C76.2742 465.597 78.8836 464.738 95.266 462.177C107.318 460.29 123.921 455.326 130.829 453.79Z" fill="#F28F8F"></path>
  <path d="M93.5996 437.396C87.17 436.538 79.6979 439.574 79.6979 439.574C79.6979 439.574 85.338 435.492 93.0418 435.408L93.5996 437.396Z" fill="#B16668"></path>
  <path d="M169.654 424.538C168.532 425.632 167.326 426.615 166.119 427.589C164.914 428.567 163.683 429.5 162.475 430.461C161.868 430.929 161.28 431.439 160.639 431.897C160.002 432.346 159.361 432.78 158.701 433.176C157.39 433.982 156.058 434.738 154.687 435.408L156.594 434.099C157.233 433.672 157.87 433.24 158.497 432.796C159.122 432.347 159.755 431.916 160.361 431.448C160.969 430.995 161.553 430.483 162.167 430C163.39 429.041 164.632 428.12 165.891 427.229L169.654 424.538Z" fill="#B16668"></path>
  <path d="M167.217 429.931C166.512 430.926 165.691 431.897 164.828 432.735C163.965 433.577 163.064 434.37 162.148 435.139C161.225 435.9 160.288 436.64 159.322 437.335C158.36 438.034 157.369 438.696 156.333 439.258C157.263 438.506 158.166 437.729 159.084 436.971L161.826 434.687L164.562 432.397C165.465 431.62 166.361 430.778 167.217 429.931Z" fill="#B16668"></path>
  <path d="M107.625 436.099C104.592 439.71 105.578 456.371 107.625 460.436C93.669 464.502 81.73 465.256 78.0472 465.323C74.3644 465.391 72.4593 462.988 69.1568 455.235C65.8544 447.483 58.8836 427.718 55.8207 413.309C52.7589 398.901 51.121 388.604 54.297 382.1C57.473 375.598 63.1852 372.985 69.7269 370.481C73.9641 372.927 80.5834 380.056 84.7763 397.893L94.1114 436.716L107.625 436.099Z" fill="url(#paint5_linear_2376_5974)"></path>
  <path opacity="0.35" d="M94.1113 436.714C86.9398 437.85 80.7685 441.842 80.7685 441.842C80.7685 441.842 83.6651 435.703 93.4859 434.114L94.1113 436.714Z" fill="#66778C"></path>
  <g opacity="0.2">
    <path opacity="0.3" d="M14.0788 189.9C14.0788 193.659 16.7181 196.056 19.9884 197.934L89.5768 238.138C92.8293 240.017 95.4863 238.499 95.4863 234.722V205.128C95.4863 200.924 93.2441 197.038 89.6034 194.936L19.9928 154.678C17.3646 153.159 14.0777 155.056 14.0777 158.092V189.9H14.0788Z" fill="black"></path>
  </g>
  <path d="M0.0265656 167.093C0.134132 164.827 1.69994 162.169 3.63394 161.051L4.97575 160.276C6.97961 159.118 10.2288 159.117 12.2327 160.275L80.8696 199.947C82.8734 201.104 84.498 203.919 84.498 206.233L84.497 239.926C84.497 242.24 82.8724 245.055 80.8685 246.213L79.5267 246.988C77.5228 248.145 74.2736 248.147 72.2698 246.989L72.5769 247.124L42.468 229.826C41.9479 229.525 41.4001 229.296 40.8556 229.13L35.3575 234.055L34.9383 234.369L31.8987 236.095L26.3096 239.322V239.318C25.2273 239.935 23.4885 239.862 22.1278 239.076C20.5609 238.172 19.2911 235.562 19.2911 233.248V220.59C19.2911 218.276 17.6665 215.462 15.6615 214.305L3.62951 207.347C1.62565 206.19 0.00104523 203.376 0.00104523 201.062V189.74V167.368C0.00104523 167.268 0.021019 167.187 0.0265656 167.093Z" fill="#3F4A59"></path>
  <path d="M73.8833 246.742C75.0533 246.742 75.1797 245.428 75.1797 244.863V211.168C75.1797 209.119 73.6815 206.523 71.9061 205.5L3.27028 165.888C2.81783 165.626 2.37981 165.488 2.0061 165.488C0.836166 165.488 0.70974 166.802 0.70974 167.367V201.062C0.70974 203.111 2.20792 205.707 3.98334 206.73L16.0165 213.688C18.251 214.978 20.002 218.01 20.002 220.589V233.248C20.002 235.297 21.1376 237.683 22.4827 238.458C23.1071 238.819 23.8489 239.017 24.5731 239.017C25.2883 239.017 25.9016 238.821 26.2576 238.477L36.553 228.938C37.1075 228.405 37.9558 228.122 39.0049 228.122C40.2347 228.122 41.6253 228.518 42.8207 229.208L72.618 246.34C73.0716 246.604 73.5096 246.742 73.8833 246.742Z" fill="#FAFAFA"></path>
  <path d="M2.0051 166.2C1.4972 166.2 1.42068 166.932 1.42068 167.366V189.738V196.384V201.06C1.42068 202.855 2.78358 205.216 4.33832 206.113L16.3714 213.07C18.8056 214.476 20.7118 217.779 20.7118 220.589V233.246C20.7118 235.231 21.8319 237.262 22.8366 237.842C23.3467 238.137 23.9799 238.305 24.5721 238.305C25.1897 238.305 25.5923 238.129 25.7642 237.964L36.0585 228.425C36.7483 227.761 37.7674 227.41 39.0061 227.41C40.3568 227.41 41.8771 227.84 43.1768 228.591L72.9752 245.723C73.3157 245.919 73.6384 246.028 73.8846 246.028C74.3925 246.028 74.469 245.297 74.469 244.862V211.167C74.469 209.373 73.1061 207.012 71.5525 206.115L2.91664 166.504C2.57287 166.308 2.25018 166.2 2.0051 166.2ZM2.0051 164.776C2.49303 164.776 3.04308 164.936 3.62638 165.272L72.2622 204.883C74.266 206.041 75.8906 208.854 75.8906 211.168V244.863C75.8906 246.504 75.0733 247.453 73.8823 247.453C73.3944 247.453 72.8444 247.293 72.2622 246.957L42.4637 229.825C41.3337 229.173 40.0696 228.835 39.005 228.835C38.181 228.835 37.4768 229.037 37.0455 229.453L26.7512 238.992C26.2411 239.483 25.4415 239.73 24.5721 239.73C23.7581 239.73 22.8821 239.513 22.1247 239.076C20.5577 238.171 19.288 235.562 19.288 233.248V220.59C19.288 218.276 17.6634 215.461 15.6584 214.305L3.62638 207.347C1.62252 206.189 -0.00320435 203.376 -0.00320435 201.062V196.385V189.739V167.367C-0.00320435 165.725 0.814095 164.776 2.0051 164.776Z" fill="#EAEAEA"></path>
  <path d="M21.3801 192.363C19.0768 191.033 17.2093 192.111 17.2093 194.772C17.2093 197.432 19.0768 200.666 21.3801 201.995C23.6833 203.325 25.5508 202.247 25.5508 199.588C25.5508 196.928 23.6844 193.694 21.3801 192.363Z" fill="#455A64"></path>
  <path d="M38.0636 201.983C35.7603 200.653 33.8929 201.731 33.8929 204.391C33.8929 207.051 35.7603 210.285 38.0636 211.615C40.368 212.945 42.2344 211.867 42.2344 209.207C42.2344 206.547 40.368 203.313 38.0636 201.983Z" fill="#455A64"></path>
  <path d="M54.7492 211.604C52.4459 210.274 50.5784 211.352 50.5784 214.012C50.5784 216.673 52.4459 219.906 54.7492 221.237C57.0525 222.567 58.9199 221.489 58.9199 218.828C58.9199 216.168 57.0525 212.933 54.7492 211.604Z" fill="#455A64"></path>
  <g opacity="0.2">
    <path opacity="0.3" d="M45.1229 94.8605C45.1229 98.6198 47.7622 101.016 51.0324 102.895L225.528 203.661C228.782 205.541 231.438 204.023 231.438 200.246V134.833C231.438 130.629 229.195 126.745 225.555 124.641L51.038 23.8216C48.4098 22.3035 45.1229 24.1998 45.1229 27.2361V94.8605Z" fill="black"></path>
  </g>
  <path d="M215.483 212.512L216.825 211.737C218.829 210.579 220.453 207.764 220.453 205.45V135.938C220.453 133.624 218.829 130.809 216.825 129.653L43.2817 29.4176C41.2779 28.261 38.0276 28.261 36.0248 29.4187L34.683 30.1939C32.6791 31.3516 31.0545 34.1661 31.0545 36.4805V105.992C31.0545 108.307 32.6791 111.121 34.6841 112.278L151.488 179.754C153.492 180.91 155.918 183.545 156.906 185.638L170.348 214.094C171.336 216.187 173.407 218.617 174.974 219.522C176.541 220.426 179.436 220.221 181.441 219.065L182.347 218.541C184.35 217.383 185.976 214.57 185.976 212.256V203.859C185.976 201.544 187.601 200.606 189.606 201.763L208.227 212.513C210.23 213.671 213.479 213.67 215.483 212.512Z" fill="#3F4A59"></path>
  <path d="M31.0491 36.4793C31.0491 34.1682 32.6726 33.2323 34.682 34.3878L208.222 134.618C209.089 135.114 209.873 135.912 210.492 136.847L219.078 131.894C218.458 130.958 217.689 130.146 216.821 129.652L43.2807 29.4208C41.2713 28.2653 38.0243 28.2653 36.0293 29.4208L34.6809 30.1916C32.6726 31.3471 31.0491 34.1682 31.0491 36.4793Z" fill="#3F4A59"></path>
  <path d="M176.007 219.12C176.287 219.12 176.516 218.976 176.707 218.681C176.961 218.289 177.099 217.681 177.099 216.969V199.144C177.099 197.169 178.193 195.841 179.82 195.841C180.454 195.841 181.119 196.04 181.797 196.432L208.582 211.896C209.034 212.158 209.473 212.297 209.846 212.297C211.016 212.297 211.143 210.983 211.143 210.418V140.906C211.143 138.857 209.644 136.261 207.869 135.237L34.326 35.0034C33.8736 34.7416 33.4356 34.603 33.0619 34.603C31.8919 34.603 31.7655 35.9171 31.7655 36.4816V105.993C31.7655 108.043 33.2637 110.639 35.0391 111.662L151.842 179.138C153.985 180.376 156.493 183.098 157.548 185.335L170.991 213.79C171.909 215.734 173.894 218.077 175.33 218.905C175.574 219.047 175.808 219.12 176.007 219.12Z" fill="#FAFAFA"></path>
  <path d="M33.0628 35.3135C32.5549 35.3135 32.4784 36.0443 32.4784 36.4801V105.992C32.4784 107.786 33.8413 110.147 35.396 111.044L152.2 178.52C154.451 179.82 157.084 182.679 158.194 185.03L171.635 213.486C172.488 215.291 174.381 217.534 175.686 218.288C175.882 218.401 175.988 218.408 176.008 218.409C176.109 218.357 176.387 217.92 176.388 216.968V199.142C176.388 196.778 177.8 195.128 179.82 195.128C180.58 195.128 181.364 195.358 182.154 195.814L208.939 211.278C209.398 211.543 209.705 211.583 209.848 211.583C210.357 211.583 210.433 210.853 210.433 210.417V205.74V199.094V140.905C210.433 139.111 209.07 136.75 207.515 135.853L33.9722 35.6174C33.6317 35.4222 33.3079 35.3135 33.0628 35.3135ZM33.0628 33.8896C33.5508 33.8896 34.1008 34.0493 34.6841 34.3853L208.227 134.62C210.231 135.777 211.855 138.592 211.855 140.906V199.096V205.741V210.418C211.855 212.059 211.038 213.008 209.847 213.008C209.359 213.008 208.809 212.849 208.226 212.513L181.44 197.048C180.858 196.712 180.308 196.553 179.82 196.553C178.629 196.553 177.812 197.502 177.812 199.144V216.971C177.812 218.747 177.063 219.833 176.007 219.833C175.687 219.833 175.338 219.733 174.974 219.523C173.407 218.618 171.336 216.189 170.348 214.096L156.906 185.64C155.918 183.547 153.492 180.912 151.487 179.756L34.683 112.28C32.6791 111.122 31.0534 108.309 31.0534 105.994V36.4824C31.0545 34.8389 31.8718 33.8896 33.0628 33.8896Z" fill="#EAEAEA"></path>
  <path d="M437.004 51.3444L438.362 47.8025C438.563 47.279 439.143 47.2702 439.657 47.7825L443.418 51.5307C443.932 52.0431 444.659 52.1285 445.117 51.7958C445.412 51.5817 445.722 51.3988 446.046 51.2446C446.574 50.994 446.934 50.3697 446.783 49.7509L445.425 44.1929C445.274 43.5741 445.699 43.1582 446.375 43.2647L449.566 43.7681C450.242 43.8746 450.981 44.4612 451.217 45.0778L453.408 50.8232C453.643 51.4398 454.366 52.1983 454.996 52.5687C455.599 52.9236 456.209 53.3261 456.824 53.7775C457.415 54.2122 458.098 54.2044 458.376 53.7242L459.878 51.1382C460.156 50.6591 460.767 50.7079 461.242 51.248L465.411 55.9865C465.886 56.5265 466.167 57.4148 466.037 57.9715L465.184 61.6288C465.054 62.1855 465.263 63.1092 465.628 63.7003C466.271 64.7416 466.866 65.8073 467.413 66.8852C467.72 67.4918 468.501 68.156 469.178 68.3645L472.184 69.2905C472.861 69.4989 473.568 70.171 473.762 70.7897L475.749 77.1263C475.943 77.745 475.57 78.2529 474.917 78.2585L472.371 78.2829C471.717 78.2895 471.262 78.793 471.326 79.404C471.425 80.3444 471.467 81.2593 471.452 82.1376C471.442 82.7331 471.756 83.6635 472.193 84.2246L475.815 88.8888C476.252 89.451 476.443 90.3304 476.242 90.8539L474.885 94.3958C474.684 94.9192 474.104 94.9281 473.59 94.4158L469.829 90.6676C469.315 90.1552 468.589 90.0698 468.131 90.4025C467.837 90.6165 467.526 90.7995 467.201 90.9548C466.673 91.2054 466.313 91.8308 466.464 92.4485L467.822 98.0065C467.973 98.6253 467.548 99.0412 466.872 98.9347L463.683 98.4324C463.006 98.3259 462.266 97.7393 462.031 97.1216L459.84 91.3762C459.605 90.7596 458.883 90.0022 458.251 89.6307C457.648 89.2758 457.038 88.8733 456.425 88.4219C455.833 87.9872 455.15 87.995 454.872 88.4752L453.37 91.0612C453.092 91.5403 452.481 91.4915 452.006 90.9514L447.838 86.2129C447.362 85.6729 447.083 84.7846 447.213 84.2279L448.065 80.5706C448.195 80.0139 447.985 79.0902 447.621 78.4991C446.977 77.4578 446.382 76.3921 445.835 75.3142C445.528 74.7076 444.747 74.0434 444.07 73.8338L441.065 72.9078C440.388 72.6993 439.682 72.0284 439.487 71.4085L437.499 65.072C437.305 64.4532 437.678 63.9454 438.331 63.9398L440.878 63.9154C441.533 63.9088 441.986 63.4053 441.923 62.7943C441.824 61.8539 441.782 60.939 441.798 60.0618C441.808 59.4663 441.494 58.537 441.057 57.9748L437.434 53.3095C436.994 52.7484 436.803 51.8679 437.004 51.3444ZM453.726 78.6533C458.245 83.7899 463.206 84.5706 464.805 80.3998C466.404 76.228 464.037 68.6828 459.518 63.5472C455 58.4106 450.04 57.6288 448.44 61.8007C446.84 65.9714 449.206 73.5166 453.726 78.6533Z" fill="#DAE1F1"></path>
  <path d="M526.563 130.839C527.078 130.839 527.53 130.66 527.836 130.326C528.19 129.942 528.312 129.387 528.17 128.806L526.282 121.082C526.135 120.479 526.527 119.89 526.992 119.67C527.477 119.44 527.942 119.163 528.376 118.848C528.803 118.538 529.494 118.67 529.983 119.158L535.209 124.366C535.756 124.91 536.397 125.154 536.964 125.032C537.425 124.934 537.78 124.615 537.964 124.135L539.851 119.214C540.206 118.288 539.916 116.869 539.175 115.916L534.14 109.433C533.584 108.717 533.222 107.545 533.233 106.9C533.254 105.669 533.194 104.367 533.055 103.031C533.03 102.793 533.098 102.57 533.246 102.403C533.409 102.221 533.652 102.119 533.933 102.117L537.47 102.084C538.093 102.078 538.635 101.819 538.96 101.372C539.282 100.928 539.361 100.338 539.177 99.7529L536.416 90.9479C536.091 89.911 534.959 88.8276 533.839 88.4827L529.662 87.1952C528.884 86.9557 527.92 86.1484 527.558 85.432C526.784 83.9061 525.941 82.4024 525.054 80.963C524.622 80.2655 524.367 79.1255 524.508 78.5222L525.693 73.4399C525.919 72.4762 525.488 71.0679 524.694 70.1641L518.9 63.5792C518.4 63.0125 517.774 62.7164 517.184 62.7774C516.711 62.824 516.313 63.0868 516.062 63.5182L513.976 67.1123C513.911 67.2243 513.813 67.293 513.676 67.3208C513.395 67.3795 513.008 67.2598 512.667 67.008C511.805 66.3748 510.933 65.7993 510.078 65.2958C509.264 64.8179 508.386 63.862 508.12 63.1656L505.075 55.1823C504.676 54.1354 503.469 53.174 502.327 52.9932L497.893 52.2946C497.224 52.1904 496.626 52.3656 496.249 52.7759C495.894 53.1618 495.773 53.7163 495.915 54.2985L497.802 62.0211C497.95 62.6255 497.558 63.2132 497.094 63.4339C496.61 63.6646 496.145 63.9407 495.71 64.2556C495.281 64.5673 494.59 64.4331 494.102 63.9463L488.877 58.7376C488.33 58.1931 487.69 57.948 487.121 58.0722C486.661 58.1698 486.306 58.4891 486.122 58.9693L484.234 63.8897C483.88 64.8157 484.171 66.234 484.912 67.1877L489.946 73.6706C490.502 74.387 490.864 75.5591 490.853 76.2034C490.83 77.4332 490.89 78.7351 491.03 80.0725C491.054 80.3109 490.987 80.5349 490.838 80.7013C490.676 80.882 490.432 80.9841 490.153 80.9863L486.613 81.0207C485.991 81.0262 485.449 81.2857 485.125 81.7326C484.802 82.1762 484.724 82.7661 484.908 83.3517L487.669 92.1567C487.994 93.1946 489.126 94.277 490.246 94.6229L494.422 95.9104C495.201 96.15 496.164 96.9584 496.527 97.6736C497.297 99.194 498.141 100.698 499.032 102.143C499.462 102.841 499.718 103.981 499.578 104.583L498.392 109.666C498.167 110.631 498.597 112.039 499.392 112.942L505.185 119.526C505.684 120.093 506.312 120.381 506.9 120.328C507.374 120.282 507.772 120.019 508.022 119.587L510.108 115.993C510.174 115.881 510.271 115.813 510.409 115.785C510.695 115.725 511.07 115.843 511.417 116.098C512.275 116.729 513.146 117.304 514.005 117.81C514.819 118.288 515.697 119.245 515.964 119.94L519.009 127.923C519.408 128.971 520.616 129.933 521.757 130.112L526.188 130.811C526.318 130.829 526.442 130.839 526.563 130.839ZM528.915 117.523C528.472 117.523 528.044 117.648 527.69 117.905C527.315 118.178 526.911 118.418 526.491 118.617C525.464 119.106 524.887 120.285 525.15 121.358L527.037 129.082C527.065 129.199 527.095 129.41 526.978 129.538C526.87 129.656 526.643 129.701 526.372 129.658L521.941 128.959C521.211 128.845 520.352 128.166 520.1 127.506L517.055 119.523C516.647 118.455 515.484 117.324 514.598 116.803C513.772 116.317 512.935 115.764 512.109 115.156C511.49 114.703 510.784 114.513 510.173 114.643C509.712 114.738 509.333 115.01 509.103 115.407L507.017 119.001C506.938 119.136 506.854 119.161 506.788 119.167C506.633 119.185 506.349 119.083 506.061 118.755L500.268 112.17C499.679 111.502 499.406 110.452 499.528 109.929L500.713 104.847C500.925 103.937 500.629 102.511 500.025 101.531C499.149 100.113 498.322 98.6384 497.567 97.1469C497.066 96.1588 495.835 95.1264 494.766 94.7971L490.59 93.5096C489.838 93.2778 488.993 92.4827 488.782 91.8084L486.02 83.0034C485.947 82.7706 485.963 82.5621 486.068 82.4179C486.174 82.2704 486.373 82.1884 486.625 82.1862L490.165 82.1518C490.777 82.1462 491.326 81.9056 491.71 81.4764C492.079 81.0617 492.25 80.5205 492.191 79.9516C492.056 78.6608 491.999 77.4077 492.02 76.2245C492.038 75.2298 491.542 73.8247 490.868 72.9564L485.834 66.4735C485.305 65.7938 485.14 64.7868 485.325 64.3078L487.212 59.3874C487.272 59.2333 487.342 59.2177 487.367 59.2122C487.509 59.1767 487.772 59.2798 488.056 59.5637L493.28 64.7724C494.169 65.6585 495.507 65.8425 496.395 65.1994C496.772 64.9255 497.176 64.687 497.595 64.4874C498.622 64.0006 499.197 62.8218 498.935 61.7461L497.047 54.0223C497.019 53.907 496.988 53.693 497.106 53.5654C497.215 53.4479 497.44 53.4035 497.711 53.4457L502.144 54.1443C502.874 54.2596 503.734 54.9383 503.985 55.597L507.03 63.5803C507.437 64.6493 508.599 65.7793 509.486 66.3005C510.308 66.784 511.146 67.3374 511.976 67.9473C512.595 68.402 513.301 68.5894 513.913 68.4608C514.372 68.3654 514.753 68.0926 514.983 67.6967L517.069 64.1026C517.148 63.9673 517.232 63.9418 517.298 63.9363C517.458 63.9163 517.737 64.0194 518.024 64.3488L523.818 70.9337C524.407 71.6024 524.68 72.6504 524.558 73.1749L523.372 78.2572C523.161 79.1687 523.457 80.5948 524.062 81.574C524.933 82.9857 525.759 84.4606 526.518 85.9588C527.02 86.9468 528.251 87.9793 529.32 88.3086L533.496 89.5961C534.248 89.8279 535.093 90.623 535.304 91.2972L538.066 100.102C538.139 100.335 538.122 100.544 538.018 100.688C537.911 100.835 537.713 100.917 537.46 100.92L533.922 100.953C533.309 100.959 532.761 101.199 532.377 101.629C532.008 102.044 531.837 102.585 531.897 103.154C532.031 104.443 532.089 105.697 532.069 106.881C532.051 107.877 532.547 109.282 533.221 110.149L538.254 116.632C538.783 117.312 538.947 118.319 538.763 118.798L536.877 123.719C536.818 123.874 536.747 123.889 536.721 123.895C536.584 123.923 536.317 123.827 536.032 123.543L530.806 118.335C530.271 117.801 529.577 117.523 528.915 117.523ZM518.339 108.784C518.728 108.784 519.106 108.752 519.474 108.685C521.546 108.313 523.096 106.93 523.957 104.683C526.246 98.7138 522.902 87.9416 516.504 80.6702C512.513 76.1335 508.069 73.797 504.609 74.418C502.538 74.7895 500.988 76.1735 500.127 78.4191C497.838 84.3885 501.181 95.1608 507.579 102.433C511.146 106.486 515.076 108.784 518.339 108.784ZM505.771 75.4815C508.682 75.4815 512.286 77.6395 515.629 81.4398C521.77 88.4195 525.018 98.6595 522.868 104.266C522.161 106.11 520.916 107.243 519.268 107.539C516.213 108.088 512.173 105.892 508.454 101.664C502.312 94.6839 499.064 84.444 501.215 78.8371C501.922 76.993 503.166 75.8607 504.815 75.5647C505.125 75.5092 505.444 75.4815 505.771 75.4815Z" fill="#F27D49"></path>
  <path d="M207.083 352.939C208.143 353.336 209.232 353.578 210.347 353.659C211.462 353.742 212.516 353.643 213.511 353.36C214.505 353.075 215.398 352.598 216.19 351.93C216.982 351.26 217.584 350.372 217.999 349.267C218.337 348.364 218.489 347.524 218.457 346.754C218.424 345.982 218.287 345.248 218.045 344.552C217.804 343.857 217.506 343.192 217.151 342.557C216.798 341.922 216.462 341.321 216.148 340.752C215.832 340.184 215.581 339.618 215.392 339.059C215.202 338.499 215.166 337.958 215.286 337.437C215.333 337.171 215.311 336.918 215.221 336.679C215.13 336.439 214.961 336.273 214.713 336.18L212.139 335.216C211.89 335.122 211.636 335.13 211.376 335.239C211.117 335.347 210.951 335.53 210.882 335.787C210.598 336.685 210.493 337.527 210.573 338.317C210.65 339.104 210.82 339.852 211.085 340.556C211.348 341.26 211.666 341.926 212.036 342.554C212.407 343.181 212.742 343.777 213.046 344.343C213.35 344.906 213.574 345.441 213.72 345.946C213.866 346.451 213.85 346.94 213.673 347.416C213.352 348.272 212.726 348.843 211.796 349.126C210.866 349.408 209.803 349.326 208.606 348.878C206.687 348.159 205.635 346.67 205.451 344.412C205.431 344.123 205.383 343.892 205.305 343.722C205.227 343.55 205.041 343.41 204.748 343.301L202.005 342.273C201.801 342.196 201.601 342.198 201.403 342.279C201.205 342.36 201.065 342.513 200.98 342.739C200.706 343.537 200.647 344.436 200.802 345.434C200.956 346.432 201.298 347.409 201.826 348.367C202.356 349.325 203.066 350.214 203.955 351.037C204.843 351.855 205.886 352.49 207.083 352.939ZM215.642 334.21C215.891 334.302 216.139 334.293 216.388 334.18C216.636 334.067 216.806 333.886 216.899 333.638L218.015 330.657C218.108 330.409 218.098 330.161 217.986 329.912C217.873 329.664 217.691 329.494 217.444 329.401L214.531 328.31C214.283 328.217 214.035 328.226 213.787 328.339C213.538 328.451 213.368 328.632 213.274 328.881L212.158 331.862C212.066 332.11 212.075 332.358 212.188 332.607C212.302 332.854 212.481 333.026 212.73 333.119L215.642 334.21Z" fill="#424E5C"></path>
  <path d="M162.135 283.959C161.824 283.749 161.481 283.68 161.102 283.752C160.724 283.827 160.43 284.018 160.221 284.327L157.704 288.045C157.493 288.357 157.424 288.699 157.498 289.078C157.57 289.456 157.762 289.75 158.072 289.96L161.707 292.42C162.017 292.631 162.36 292.698 162.738 292.626C163.117 292.554 163.41 292.362 163.62 292.052L166.138 288.332C166.348 288.023 166.418 287.68 166.343 287.3C166.271 286.923 166.08 286.63 165.769 286.419L162.135 283.959ZM180.076 261.096C178.753 260.2 177.34 259.51 175.838 259.027C174.335 258.546 172.855 258.332 171.398 258.394C169.938 258.454 168.557 258.812 167.249 259.469C165.941 260.125 164.821 261.143 163.886 262.524C163.123 263.651 162.636 264.75 162.426 265.818C162.215 266.888 162.16 267.94 162.262 268.974C162.363 270.009 162.553 271.02 162.827 272.008C163.104 272.997 163.365 273.933 163.609 274.817C163.853 275.7 164.011 276.559 164.085 277.389C164.161 278.221 164.029 278.975 163.694 279.652C163.541 280.001 163.487 280.354 163.531 280.713C163.575 281.072 163.753 281.355 164.062 281.566L167.275 283.74C167.584 283.95 167.936 284.024 168.327 283.961C168.719 283.898 169.006 283.703 169.188 283.373C169.875 282.234 170.297 281.114 170.451 280.005C170.604 278.899 170.617 277.819 170.489 276.764C170.36 275.712 170.145 274.694 169.844 273.709C169.545 272.726 169.281 271.797 169.05 270.921C168.821 270.047 168.69 269.24 168.657 268.498C168.624 267.758 168.808 267.091 169.209 266.498C169.934 265.428 170.98 264.854 172.349 264.773C173.718 264.693 175.149 265.158 176.642 266.168C179.037 267.79 179.989 270.181 179.494 273.338C179.425 273.744 179.416 274.078 179.465 274.335C179.516 274.596 179.724 274.849 180.09 275.097L183.514 277.415C183.767 277.587 184.043 277.65 184.34 277.604C184.639 277.559 184.881 277.395 185.072 277.114C185.712 276.11 186.092 274.898 186.21 273.477C186.329 272.056 186.183 270.603 185.773 269.113C185.364 267.625 184.686 266.169 183.738 264.746C182.792 263.325 181.571 262.108 180.076 261.096Z" fill="#F27D49"></path>
  <path d="M28.1827 338.164C27.891 338.296 27.6873 338.515 27.5689 338.822C27.4533 339.129 27.4599 339.429 27.5907 339.721L29.1632 343.22C29.2948 343.513 29.5137 343.716 29.8215 343.833C30.1294 343.95 30.4287 343.943 30.7205 343.812L34.1402 342.275C34.4329 342.144 34.6356 341.926 34.7531 341.618C34.8705 341.31 34.863 341.011 34.7313 340.719L33.1597 337.219C33.029 336.927 32.8111 336.723 32.5014 336.606C32.1945 336.489 31.8961 336.496 31.6034 336.628L28.1827 338.164ZM19.624 314.861C18.3793 315.42 17.2425 316.137 16.2185 317.012C15.1936 317.888 14.3742 318.868 13.7651 319.955C13.1541 321.042 12.7931 322.207 12.6833 323.452C12.5734 324.698 12.8092 325.969 13.3937 327.268C13.8702 328.329 14.4499 329.176 15.132 329.808C15.814 330.442 16.5548 330.954 17.3515 331.345C18.1491 331.736 18.9685 332.052 19.8097 332.297C20.6537 332.539 21.4504 332.77 22.2016 332.99C22.9537 333.21 23.6481 333.48 24.2847 333.799C24.9231 334.118 25.4119 334.552 25.7529 335.099C25.9377 335.367 26.1697 335.564 26.4511 335.694C26.7324 335.822 27.0176 335.821 27.3093 335.69L30.3321 334.331C30.6239 334.201 30.8351 333.979 30.9649 333.665C31.0947 333.352 31.0824 333.056 30.9242 332.776C30.4051 331.765 29.7798 330.955 29.0438 330.346C28.3078 329.738 27.5291 329.244 26.705 328.864C25.8827 328.485 25.0463 328.184 24.1956 327.96C23.3478 327.736 22.553 327.511 21.8141 327.286C21.0762 327.06 20.4311 326.793 19.876 326.483C19.3237 326.174 18.9211 325.741 18.6711 325.184C18.2183 324.177 18.2703 323.158 18.8273 322.128C19.3834 321.097 20.3638 320.266 21.7687 319.634C24.0232 318.622 26.1877 319.004 28.2604 320.781C28.5247 321.015 28.7625 321.171 28.9718 321.25C29.184 321.331 29.4616 321.294 29.8054 321.139L33.0271 319.691C33.2659 319.584 33.4354 319.413 33.5358 319.176C33.6372 318.938 33.6268 318.689 33.5084 318.424C33.066 317.508 32.3555 316.687 31.376 315.964C30.3975 315.24 29.2759 314.692 28.0084 314.321C26.7429 313.951 25.3807 313.789 23.9209 313.84C22.4621 313.888 21.0298 314.229 19.624 314.861Z" fill="#3D4957"></path>
  <path d="M261.996 3.63274L302.151 26.8163C304.159 27.9752 305.791 31.0935 305.791 33.7694V65.6692C305.791 68.344 304.159 69.5783 302.151 68.4194L261.996 45.2359C259.988 44.077 258.357 40.9587 258.357 38.2828V6.38292C258.356 3.70815 259.988 2.4739 261.996 3.63274ZM273.919 31.2565L259.829 5.66987C259.638 6.02695 259.519 6.48716 259.519 7.05605V37.4012L273.919 31.2565ZM302.151 28.3688L261.996 5.18526C261.479 4.88696 261 4.82375 260.603 4.95682L280.547 41.1749C281.403 42.7308 282.745 43.5048 283.601 42.9381L303.544 29.7472C303.147 29.1562 302.668 28.666 302.151 28.3688ZM304.317 31.3541L290.227 40.6714L304.627 63.4425V33.0974C304.627 32.5285 304.508 31.9319 304.317 31.3541ZM261.996 43.6844L302.151 66.8691C303.423 67.6032 304.464 66.9113 304.6 65.341L289.362 41.2437L284.393 44.5295C283.743 44.9597 282.908 44.881 282.074 44.3986C281.24 43.9173 280.405 43.0324 279.755 41.8514L274.786 32.8279L259.548 39.3296C259.683 41.0585 260.722 42.9503 261.996 43.6844Z" fill="#F27D49"></path>
  <path d="M220.986 0.432802L255.32 20.2607V21.8132L220.987 1.98532C220.477 1.68591 219.989 1.61937 219.601 1.75244L239.54 37.9705C240.394 39.5341 241.735 40.3104 242.589 39.7337L255.32 31.3169V33.446L249.221 37.4715L263.615 60.2492V49.681L264.779 50.3574V62.4671C264.779 65.1507 263.149 66.3816 261.142 65.2173L220.987 42.0403C218.98 40.876 217.35 37.7598 217.35 35.0873V3.18298C217.35 0.510428 218.979 -0.720499 220.986 0.432802ZM220.986 40.4878L261.141 63.6758C262.416 64.4077 263.459 63.7091 263.592 62.1455L248.355 38.0482L243.387 41.3306C242.732 41.7631 241.901 41.6855 241.069 41.1976C240.226 40.7207 239.394 39.8335 238.751 38.6581L233.772 29.6313L218.535 36.1297C218.681 37.8596 219.711 39.7559 220.986 40.4878ZM218.514 34.2001L232.908 28.0566L218.825 2.47326C218.636 2.82812 218.514 3.28279 218.514 3.85944V34.2001Z" fill="#DAE1F1"></path>
  <path d="M289.888 397.514L280.999 391.398C280.025 390.729 279.359 389.498 279.205 387.624L288.094 393.739C288.248 395.613 288.903 396.843 289.888 397.514Z" fill="#DAD9E8"></path>
  <mask id="mask0_2376_5974" style="mask-type:luminance" maskUnits="userSpaceOnUse" x="279" y="387" width="11" height="11">
    <path d="M289.886 397.515L280.997 391.399C280.023 390.73 279.357 389.499 279.203 387.625L288.092 393.74C288.246 395.614 288.902 396.844 289.886 397.515Z" fill="white"></path>
  </mask>
  <g mask="url(#mask0_2376_5974)">
    <path d="M289.889 397.513L281 391.397C280.027 390.728 279.37 389.509 279.215 387.656L288.104 393.772C288.26 395.624 288.916 396.843 289.889 397.513Z" fill="#DAD9E8"></path>
    <path d="M288.103 393.772L279.214 387.657C279.214 387.657 279.216 387.635 279.217 387.624L288.106 393.739C288.106 393.739 288.104 393.761 288.103 393.772Z" fill="#DAD9E8"></path>
  </g>
  <path d="M305.346 301.062L314.235 307.177C311.638 305.391 307.865 305.3 303.459 307.41L294.57 301.294C298.975 299.185 302.749 299.276 305.346 301.062Z" fill="#DAD9E8"></path>
  <mask id="mask1_2376_5974" style="mask-type:luminance" maskUnits="userSpaceOnUse" x="294" y="299" width="21" height="9">
    <path d="M305.353 301.063L314.243 307.179C311.646 305.393 307.872 305.302 303.467 307.411L294.578 301.296C298.983 299.186 302.757 299.277 305.353 301.063Z" fill="white"></path>
  </mask>
  <g mask="url(#mask1_2376_5974)">
    <path d="M303.467 307.411L294.578 301.296C298.983 299.186 302.757 299.277 305.353 301.063L314.243 307.179C311.646 305.393 307.872 305.302 303.467 307.411Z" fill="#DAD9E8"></path>
  </g>
  <path d="M288.112 393.739L279.223 387.612L274.629 330.209L283.517 336.335L288.112 393.739Z" fill="#DAD9E8"></path>
  <path d="M300.496 308.836L291.607 302.709L294.571 301.294L303.46 307.41L300.496 308.836Z" fill="#EBEBF1"></path>
  <path d="M283.518 336.335L274.628 330.219C273.845 320.449 281.936 307.357 291.616 302.72L300.505 308.835C290.825 313.472 282.734 326.564 283.518 336.335Z" fill="#EBEBF1"></path>
  <mask id="mask2_2376_5974" style="mask-type:luminance" maskUnits="userSpaceOnUse" x="274" y="302" width="27" height="35">
    <path d="M283.521 336.333L274.632 330.217C273.849 320.447 281.94 307.355 291.62 302.718L300.509 308.833C290.829 313.47 282.738 326.562 283.521 336.333Z" fill="white"></path>
  </mask>
  <g mask="url(#mask2_2376_5974)">
    <path d="M283.53 336.334L274.641 330.218C274.406 327.246 274.987 323.973 276.185 320.714L285.074 326.829C283.877 330.077 283.295 333.362 283.53 336.334Z" fill="#EBEBF1"></path>
    <path d="M285.071 326.83L276.182 320.715C277.532 317.048 279.651 313.419 282.272 310.291L291.161 316.407C288.551 319.535 286.421 323.164 285.071 326.83Z" fill="#EBEBF1"></path>
    <path d="M291.148 316.406L282.259 310.291C284.261 307.898 286.538 305.802 288.975 304.203L297.864 310.319C295.427 311.917 293.139 314.013 291.148 316.406Z" fill="#EBEBF1"></path>
    <path d="M297.881 310.32L288.992 304.205C289.851 303.642 290.727 303.136 291.63 302.709L300.52 308.825C299.627 309.252 298.751 309.758 297.881 310.32Z" fill="#EBEBF1"></path>
  </g>
  <path d="M303.451 307.41C313.131 302.773 319.802 308.784 317.473 320.047L303.759 386.221C302.675 391.45 298.94 395.595 295.392 397.307C291.834 399.007 288.462 398.275 288.105 393.739L283.51 336.336C282.727 326.565 290.818 313.474 300.498 308.837L303.461 307.421L303.451 307.41Z" fill="#C4C3EC"></path>
  <path d="M313.715 308.678L319.903 312.944C317.275 311.134 313.444 311.071 309.061 313.171L302.874 308.906C307.268 306.795 311.088 306.868 313.715 308.678Z" fill="#05D4F5"></path>
  <mask id="mask3_2376_5974" style="mask-type:luminance" maskUnits="userSpaceOnUse" x="302" y="307" width="18" height="7">
    <path d="M313.717 308.678L319.905 312.944C317.277 311.133 313.446 311.071 309.063 313.171L302.876 308.905C307.27 306.795 311.09 306.867 313.717 308.678Z" fill="white"></path>
  </mask>
  <g mask="url(#mask3_2376_5974)">
    <path d="M309.063 313.171L302.876 308.905C307.27 306.795 311.09 306.867 313.717 308.678L319.905 312.944C317.277 311.133 313.446 311.071 309.063 313.171Z" fill="#05D4F5"></path>
  </g>
  <path d="M310.083 319.623C316.057 316.752 320.521 319.773 320.038 326.36C319.556 332.936 314.305 340.613 308.321 343.472C302.347 346.343 297.873 343.322 298.365 336.746C298.848 330.17 304.11 322.483 310.083 319.623Z" fill="#05D4F5"></path>
  <path d="M295.651 348.189L289.464 343.923C286.867 342.137 285.437 338.654 285.792 333.876C286.506 324.275 294.153 313.089 302.884 308.898L309.071 313.164C300.341 317.344 292.694 328.53 291.979 338.142C291.625 342.909 293.055 346.392 295.652 348.178L295.651 348.189Z" fill="#05D4F5"></path>
  <mask id="mask4_2376_5974" style="mask-type:luminance" maskUnits="userSpaceOnUse" x="285" y="308" width="25" height="41">
    <path d="M295.653 348.187L289.466 343.922C286.869 342.135 285.439 338.653 285.794 333.874C286.508 324.274 294.155 313.088 302.886 308.896L309.073 313.162C300.343 317.343 292.696 328.528 291.981 338.14C291.627 342.908 293.057 346.39 295.654 348.176L295.653 348.187Z" fill="white"></path>
  </mask>
  <g mask="url(#mask4_2376_5974)">
    <path d="M295.659 348.188L289.472 343.922C287.168 342.335 285.783 339.407 285.746 335.436L291.933 339.702C291.971 343.673 293.355 346.601 295.659 348.188Z" fill="#233244"></path>
    <path d="M291.934 339.702L285.747 335.436C285.741 334.94 285.759 334.412 285.799 333.886C286.412 325.6 292.185 316.144 299.357 311.018L305.544 315.284C298.373 320.41 292.6 329.866 291.987 338.152C291.945 338.689 291.928 339.205 291.934 339.702Z" fill="#233244"></path>
    <path d="M305.547 315.284L299.36 311.018C300.502 310.202 301.692 309.488 302.894 308.908L309.081 313.174C307.88 313.754 306.701 314.457 305.547 315.284Z" fill="#05D4F5"></path>
  </g>
  <path d="M310.083 319.624L309.067 313.175C317.797 308.995 324.295 313.383 323.58 322.995C322.866 332.596 315.219 343.782 306.5 347.963C297.769 352.144 291.272 347.755 291.975 338.153C292.688 328.552 300.336 317.367 309.067 313.175L310.083 319.624C304.11 322.484 298.847 330.171 298.365 336.747C297.872 343.323 302.347 346.344 308.321 343.473C314.294 340.613 319.555 332.937 320.037 326.361C320.531 319.774 316.067 316.754 310.083 319.624Z" fill="#05D4F5"></path>
  <mask id="mask5_2376_5974" style="mask-type:luminance" maskUnits="userSpaceOnUse" x="291" y="311" width="33" height="39">
    <path d="M310.085 319.623L309.069 313.174C317.799 308.994 324.297 313.382 323.582 322.994C322.868 332.595 315.221 343.781 306.502 347.962C297.771 352.143 291.274 347.754 291.977 338.152C292.69 328.551 300.338 317.366 309.069 313.174L310.085 319.623C304.112 322.483 298.849 330.17 298.367 336.746C297.874 343.322 302.349 346.343 308.323 343.472C314.296 340.612 319.557 332.936 320.039 326.36C320.533 319.773 316.069 316.753 310.085 319.623Z" fill="white"></path>
  </mask>
  <g mask="url(#mask5_2376_5974)">
    <path d="M310.085 319.623L309.069 313.174C317.799 308.994 324.297 313.382 323.582 322.994C322.868 332.595 315.221 343.781 306.502 347.962C297.771 352.143 291.274 347.754 291.977 338.152C292.69 328.551 300.338 317.366 309.069 313.174L310.085 319.623C304.112 322.483 298.849 330.17 298.367 336.746C297.874 343.322 302.349 346.343 308.323 343.472C314.296 340.612 319.557 332.936 320.039 326.36C320.533 319.773 316.069 316.753 310.085 319.623Z" fill="#12B0F3"></path>
  </g>
  <path d="M301.265 202.669L298.037 203.393L310.631 259.519L313.859 258.795L301.265 202.669Z" fill="#233244"></path>
  <path d="M319.061 432.881C304.384 422.177 301.889 409.134 300.828 403.564C301.621 408.893 305.321 414.412 311.989 419.156C328.651 431.003 357.546 433.516 376.536 424.765C384.683 421.002 389.691 415.776 391.415 410.099C389.885 414.534 387.574 421.246 380.141 428.634C377.326 431.427 371.2 436.568 361.814 439.519C347.538 444.013 330.763 441.405 319.061 432.881Z" fill="#919DD6"></path>
  <path d="M385.45 312.371C401.693 323.922 399.86 340.216 381.35 348.75C362.839 357.284 334.677 354.839 318.434 343.288C302.191 331.737 304.024 315.444 322.534 306.909C341.044 298.375 369.206 300.82 385.45 312.371Z" fill="#E4E3EE"></path>
  <path d="M300.809 403.408L291.677 342.361C292.741 349.475 297.548 356.655 306.213 362.819C327.859 378.223 365.405 381.476 390.075 370.096C400.667 365.209 407.161 358.421 409.413 351.044L391.418 410.089C389.682 415.764 384.685 420.992 376.538 424.754C357.559 433.506 328.652 431.004 311.992 419.145C305.323 414.402 301.624 408.883 300.81 403.397L300.809 403.408Z" fill="#B7B6E3"></path>
  <path d="M315.295 305.395C339.447 294.581 372.249 297.47 393.291 312.266C391.421 310.932 388.663 310.809 385.441 312.292C369.198 300.741 341.025 298.295 322.526 306.831C304.016 315.365 302.184 331.648 318.426 343.21C334.669 354.76 362.842 357.206 381.341 348.671C399.852 340.137 401.684 323.854 385.441 312.292C388.663 310.809 391.421 310.932 393.291 312.266C397.676 315.6 404.31 320.649 408.437 330.511C412.284 339.712 410.306 347.551 409.454 350.903C407.143 358.475 400.648 365.263 390.057 370.138C365.388 381.518 327.842 378.255 306.195 362.862C297.54 356.709 292.733 349.54 291.658 342.425C291.322 339.335 291.006 336.412 291.899 331.94C293.012 326.337 295.597 322.237 295.709 322.069C297.639 319.043 302.774 311.004 315.283 305.405L315.295 305.395Z" fill="#DAD9E8"></path>
  <path d="M383.69 237.749C396.15 246.607 394.74 259.108 380.549 265.648C366.357 272.199 344.743 270.321 332.284 261.452C319.825 252.595 321.234 240.104 335.426 233.553C349.618 227.003 371.232 228.88 383.69 237.749Z" fill="white"></path>
  <path d="M309.961 326.369C289.93 311.75 286.636 294.182 287.403 282.017C286.688 291.783 292.208 302.016 304.208 310.552C328.938 328.143 371.838 331.872 400.015 318.876C414.515 312.184 422.299 302.376 423.06 292.018C422.342 298.356 421.74 301.616 418.641 308.543C416.208 313.967 412.272 318.438 410.148 320.844C409.157 321.969 400.005 331.948 383.426 336.993C354.672 345.723 325.816 337.956 309.961 326.38L309.961 326.369Z" fill="#B7B6E3"></path>
  <path d="M319.274 230.341C332.105 224.579 346.175 222.34 361.107 223.683C376.444 225.057 389.949 229.762 401.235 237.682C397.012 234.679 390.813 234.458 383.694 237.748C371.234 228.89 349.631 227.014 335.429 233.553C321.237 240.103 319.828 252.594 332.288 261.452C344.747 270.31 366.35 272.186 380.552 265.647C394.744 259.096 396.153 246.606 383.694 237.748C390.813 234.458 397.012 234.679 401.235 237.682C407.162 242.181 425.191 255.886 423.793 282.034C423.033 292.38 415.248 302.2 400.748 308.892C372.571 321.888 329.671 318.17 304.94 300.579C292.941 292.043 287.421 281.799 288.136 272.044C288.569 268.263 289.053 263.969 291.121 258.847C293.559 252.774 295.463 250.23 298.607 246.018C301.088 242.692 308.6 235.145 319.273 230.352L319.274 230.341Z" fill="#E4E3EE"></path>
  <path d="M366.352 316.551C344.194 317.454 320.814 311.87 304.937 300.568C293 292.08 287.476 281.902 288.121 272.197C288.582 265.894 291.625 260.275 296.354 255.953C295.774 264.66 300.73 273.781 311.433 281.402C325.679 291.532 346.646 296.534 366.515 295.731C366.845 302.921 366.813 310.248 366.352 316.551Z" fill="#6C22D0"></path>
  <path d="M287.405 282.017L288.137 272.043C287.421 281.809 292.942 292.042 304.941 300.578C329.672 318.169 372.571 321.898 400.749 308.891C415.249 302.199 423.033 292.39 423.794 282.033L423.063 292.007C422.303 302.354 414.518 312.173 400.017 318.865C371.84 331.861 328.94 328.143 304.211 310.541C292.211 302.005 286.692 291.761 287.406 282.006L287.405 282.017Z" fill="#DAD9E8"></path>
  <path d="M298.374 283.156C296.748 286.823 294.449 286.901 293.136 283.328C290.936 277.373 294.153 270.631 297.507 271.88C298.119 272.103 298.42 272.49 298.73 272.9C300.682 276.191 299.093 281.536 298.374 283.156Z" fill="white"></path>
  <path d="M335.504 303.153C334.073 308.731 326.888 309.139 323.68 303.823C320.336 298.276 324.91 292.52 330.109 293.58C330.304 293.617 330.552 293.691 330.736 293.738C335.258 295.43 336.243 300.267 335.504 303.153Z" fill="white"></path>
  <path d="M400.708 283.679C400.965 280.326 398.713 278.798 395.692 280.242C392.672 281.686 390.003 285.581 389.746 288.934C389.489 292.288 391.742 293.816 394.762 292.372C397.795 290.918 400.451 287.032 400.708 283.679Z" fill="#6C22D0"></path>
  <path d="M395.776 288.085C395.272 288.047 394.797 287.779 394.501 287.326C394.009 286.55 394.241 285.532 395.007 285.039L435.485 259.242C436.25 258.749 437.28 258.971 437.772 259.748C438.264 260.513 438.031 261.542 437.266 262.034L396.788 287.832C396.475 288.029 396.116 288.112 395.776 288.085Z" fill="#233244"></path>
  <path d="M446.254 259.33C446.631 254.41 442.948 250.127 438.038 249.75C433.129 249.374 428.835 253.057 428.459 257.966C428.082 262.875 431.765 267.17 436.674 267.546C441.584 267.922 445.878 264.239 446.254 259.33Z" fill="#6C22D0"></path>
  <path d="M307.752 203.655C308.129 198.735 304.446 194.451 299.536 194.075C294.627 193.699 290.333 197.382 289.957 202.291C289.58 207.2 293.263 211.494 298.172 211.871C303.082 212.247 307.376 208.564 307.752 203.655Z" fill="#6C22D0"></path>
  <path d="M403.711 347.72L409.899 351.986C407.271 350.175 403.44 350.113 399.057 352.213L392.87 347.947C397.264 345.837 401.084 345.909 403.711 347.72Z" fill="#05D4F5"></path>
  <mask id="mask6_2376_5974" style="mask-type:luminance" maskUnits="userSpaceOnUse" x="392" y="346" width="18" height="7">
    <path d="M403.713 347.719L409.901 351.985C407.273 350.175 403.442 350.112 399.059 352.212L392.872 347.947C397.266 345.836 401.086 345.909 403.713 347.719Z" fill="white"></path>
  </mask>
  <g mask="url(#mask6_2376_5974)">
    <path d="M399.059 352.212L392.872 347.947C397.266 345.836 401.086 345.909 403.713 347.719L409.901 351.985C407.273 350.175 403.442 350.112 399.059 352.212Z" fill="#233244"></path>
  </g>
  <path d="M400.071 358.662C406.045 355.791 410.509 358.811 410.026 365.399C409.544 371.975 404.293 379.652 398.309 382.511C392.325 385.381 387.861 382.36 388.354 375.785C388.836 369.208 394.098 361.521 400.071 358.662Z" fill="#05D4F5"></path>
  <path d="M385.63 387.228L379.443 382.962C376.846 381.176 375.416 377.694 375.77 372.926C376.484 363.325 384.131 352.14 392.863 347.948L399.05 352.214C390.319 356.395 382.672 367.58 381.958 377.192C381.603 381.96 383.034 385.442 385.63 387.228Z" fill="#05D4F5"></path>
  <mask id="mask7_2376_5974" style="mask-type:luminance" maskUnits="userSpaceOnUse" x="375" y="347" width="25" height="41">
    <path d="M385.621 387.227L379.433 382.961C376.837 381.175 375.406 377.693 375.761 372.925C376.474 363.324 384.121 352.139 392.853 347.947L399.04 352.213C390.31 356.394 382.662 367.579 381.948 377.191C381.593 381.959 383.024 385.441 385.621 387.227Z" fill="white"></path>
  </mask>
  <g mask="url(#mask7_2376_5974)">
    <path d="M385.635 387.228L379.448 382.962C377.145 381.375 375.76 378.447 375.723 374.476L381.91 378.742C381.947 382.713 383.332 385.641 385.635 387.228Z" fill="#233244"></path>
    <path d="M381.916 378.742L375.729 374.476C375.723 373.98 375.742 373.452 375.782 372.926C376.395 364.64 382.168 355.185 389.339 350.058L395.527 354.324C388.355 359.45 382.582 368.906 381.969 377.192C381.928 377.729 381.91 378.245 381.916 378.742Z" fill="#233244"></path>
    <path d="M395.531 354.312L389.344 350.047C390.487 349.23 391.677 348.517 392.879 347.937L399.066 352.203C397.864 352.783 396.686 353.486 395.531 354.312Z" fill="#233244"></path>
  </g>
  <path d="M400.075 358.662L399.059 352.214C407.79 348.033 414.286 352.433 413.572 362.034C412.859 371.634 405.212 382.809 396.492 387.002C387.762 391.182 381.264 386.793 381.967 377.192C382.681 367.591 390.328 356.405 399.059 352.214L400.075 358.662C394.102 361.522 388.839 369.209 388.357 375.786C387.864 382.361 392.339 385.383 398.313 382.512C404.286 379.652 409.548 371.976 410.03 365.4C410.524 358.813 406.06 355.792 400.075 358.662Z" fill="#05D4F5"></path>
  <mask id="mask8_2376_5974" style="mask-type:luminance" maskUnits="userSpaceOnUse" x="381" y="350" width="33" height="39">
    <path d="M400.077 358.661L399.061 352.213C407.792 348.032 414.288 352.432 413.574 362.033C412.86 371.634 405.214 382.808 396.494 387.001C387.763 391.181 381.266 386.792 381.969 377.191C382.683 367.59 390.33 356.404 399.061 352.213L400.077 358.661C394.104 361.521 388.841 369.208 388.359 375.785C387.866 382.36 392.341 385.382 398.315 382.511C404.288 379.651 409.55 371.975 410.032 365.399C410.525 358.812 406.062 355.791 400.077 358.661Z" fill="white"></path>
  </mask>
  <g mask="url(#mask8_2376_5974)">
    <path d="M400.077 358.661L399.061 352.213C407.792 348.032 414.288 352.432 413.574 362.033C412.86 371.634 405.214 382.808 396.494 387.001C387.763 391.181 381.266 386.792 381.969 377.191C382.683 367.59 390.33 356.404 399.061 352.213L400.077 358.661C394.104 361.521 388.841 369.208 388.359 375.785C387.866 382.36 392.341 385.382 398.315 382.511C404.288 379.651 409.55 371.975 410.032 365.399C410.525 358.812 406.062 355.791 400.077 358.661Z" fill="#12B0F3"></path>
  </g>
  <path d="M396.124 447.704L387.235 441.588C386.262 440.918 385.595 439.688 385.441 437.813L394.331 443.929C394.485 445.803 395.14 447.033 396.124 447.704Z" fill="#DAD9E8"></path>
  <mask id="mask9_2376_5974" style="mask-type:luminance" maskUnits="userSpaceOnUse" x="385" y="437" width="12" height="11">
    <path d="M396.123 447.704L387.233 441.588C386.26 440.918 385.593 439.688 385.439 437.813L394.329 443.929C394.483 445.803 395.138 447.033 396.123 447.704Z" fill="white"></path>
  </mask>
  <g mask="url(#mask9_2376_5974)">
    <path d="M396.124 447.705L387.235 441.59C386.261 440.92 385.605 439.701 385.449 437.849L394.338 443.964C394.494 445.817 395.15 447.035 396.124 447.705Z" fill="#DAD9E8"></path>
    <path d="M394.338 443.962L385.449 437.846C385.449 437.846 385.45 437.824 385.451 437.813L394.34 443.929C394.34 443.929 394.339 443.951 394.338 443.962Z" fill="#DAD9E8"></path>
  </g>
  <path d="M411.578 351.252L420.467 357.367C417.871 355.581 414.097 355.49 409.692 357.599L400.803 351.484C405.208 349.375 408.981 349.466 411.578 351.252Z" fill="#DAD9E8"></path>
  <mask id="mask10_2376_5974" style="mask-type:luminance" maskUnits="userSpaceOnUse" x="400" y="349" width="21" height="9">
    <path d="M411.58 351.252L420.469 357.367C417.873 355.581 414.099 355.49 409.694 357.599L400.804 351.484C405.21 349.375 408.983 349.466 411.58 351.252Z" fill="white"></path>
  </mask>
  <g mask="url(#mask10_2376_5974)">
    <path d="M409.694 357.599L400.804 351.484C405.21 349.375 408.983 349.466 411.58 351.252L420.469 357.367C417.873 355.581 414.099 355.49 409.694 357.599Z" fill="#DAD9E8"></path>
  </g>
  <path d="M394.334 443.928L385.446 437.801L380.852 380.398L389.74 386.524L394.334 443.928Z" fill="#DAD9E8"></path>
  <path d="M406.73 359.025L397.842 352.899L400.805 351.484L409.694 357.599L406.73 359.025Z" fill="#EBEBF1"></path>
  <path d="M389.736 386.525L380.847 380.41C380.064 370.639 388.155 357.547 397.835 352.911L406.724 359.026C397.044 363.663 388.953 376.754 389.736 386.525Z" fill="#EBEBF1"></path>
  <mask id="mask11_2376_5974" style="mask-type:luminance" maskUnits="userSpaceOnUse" x="380" y="352" width="27" height="35">
    <path d="M389.732 386.524L380.843 380.409C380.06 370.638 388.151 357.546 397.831 352.91L406.72 359.025C397.04 363.662 388.949 376.753 389.732 386.524Z" fill="white"></path>
  </mask>
  <g mask="url(#mask11_2376_5974)">
    <path d="M389.729 386.523L380.84 380.408C380.605 377.436 381.186 374.163 382.384 370.904L391.273 377.019C390.076 380.267 389.494 383.551 389.729 386.523Z" fill="#EBEBF1"></path>
    <path d="M391.27 377.02L382.381 370.905C383.731 367.238 385.85 363.609 388.471 360.481L397.36 366.597C394.75 369.725 392.62 373.354 391.27 377.02Z" fill="#EBEBF1"></path>
    <path d="M397.365 366.596L388.475 360.481C390.477 358.088 392.754 355.992 395.192 354.393L404.081 360.509C401.644 362.107 399.356 364.203 397.365 366.596Z" fill="#EBEBF1"></path>
    <path d="M404.08 360.509L395.191 354.394C396.05 353.832 396.937 353.326 397.83 352.899L406.719 359.014C405.826 359.442 404.95 359.948 404.08 360.509Z" fill="#EBEBF1"></path>
  </g>
  <path d="M409.693 357.6C419.374 352.963 426.044 358.974 423.715 370.237L410.001 436.41C408.917 441.64 405.183 445.785 401.635 447.497C398.076 449.197 394.704 448.465 394.347 443.929L389.752 386.526C388.969 376.755 397.059 363.674 406.74 359.027L409.703 357.611L409.693 357.6Z" fill="#C4C3EC"></path>
  <path d="M42.1367 55.4468L200.716 148.598V160.796L42.1367 67.6452V55.4468Z" fill="#D9D9D9"></path>
  <path d="M42.1367 74.2988L156.358 140.835V153.034L42.1367 86.4972V74.2988Z" fill="#D9D9D9"></path>
  <defs>
    <linearGradient id="paint0_linear_2376_5974" x1="152.48" y1="512.331" x2="145.329" y2="446.243" gradientUnits="userSpaceOnUse">
      <stop stop-color="#505D6D"></stop>
      <stop offset="1" stop-color="#394452"></stop>
    </linearGradient>
    <linearGradient id="paint1_linear_2376_5974" x1="187.965" y1="535.064" x2="90.2403" y2="571.926" gradientUnits="userSpaceOnUse">
      <stop stop-color="#505D6D"></stop>
      <stop offset="1" stop-color="#394452"></stop>
    </linearGradient>
    <linearGradient id="paint2_linear_2376_5974" x1="154.142" y1="453.557" x2="99.7344" y2="404.764" gradientUnits="userSpaceOnUse">
      <stop offset="0.00677387" stop-color="#505D6D"></stop>
      <stop offset="1" stop-color="#394452"></stop>
    </linearGradient>
    <linearGradient id="paint3_linear_2376_5974" x1="64.3139" y1="509.003" x2="13.2706" y2="412.125" gradientUnits="userSpaceOnUse">
      <stop stop-color="#505D6D"></stop>
      <stop offset="1" stop-color="#394452"></stop>
    </linearGradient>
    <linearGradient id="paint4_linear_2376_5974" x1="141.387" y1="433.596" x2="83.1338" y2="401.161" gradientUnits="userSpaceOnUse">
      <stop stop-color="#505D6D"></stop>
      <stop offset="1" stop-color="#394452"></stop>
    </linearGradient>
    <linearGradient id="paint5_linear_2376_5974" x1="105.907" y1="453.002" x2="31.7203" y2="413.369" gradientUnits="userSpaceOnUse">
      <stop stop-color="#505D6D"></stop>
      <stop offset="1" stop-color="#394452"></stop>
    </linearGradient>
  </defs>
</svg>
